<svg version="1.1" xmlns="http://www.w3.org/2000/svg" xmlns:xlink="http://www.w3.org/1999/xlink" width="40" height="48" viewBox="0,0,213.33334,256"><g fill="none" fill-rule="none" stroke="none" stroke-width="none" stroke-linecap="none" stroke-linejoin="none" stroke-miterlimit="10" stroke-dasharray="" stroke-dashoffset="0" font-family="none" font-weight="none" font-size="none" text-anchor="none" style="mix-blend-mode: normal"><g transform="translate(-1.89944,-0.21589) scale(5.33333,5.33333)"><g id="Group 14"><path d="M18.039,41.1339h-13.05716c-2.1996,0 -3.9816,-1.7829 -3.9816,-3.9816v-32.17052c0,-2.1996 1.782,-3.9816 3.9816,-3.9816h22.98866c2.1987,0 3.9807,1.782 3.9807,3.9816v20.95472" id="Stroke 1" fill="none" fill-rule="nonzero" stroke="#1d568c" stroke-width="1.8" stroke-linecap="round" stroke-linejoin="round"></path><g id="Group 5" fill="#2096b2" fill-rule="evenodd" stroke="none" stroke-width="1" stroke-linecap="butt" stroke-linejoin="miter"><g><path d="M20.9223,28.2667l4.5414,18.0927c0.198,0.7884 1.2285,0.9828 1.701,0.3213l4.5882,-7.1757l7.4034,-2.7333c0.7389,-0.3384 0.7416,-1.3878 0.0045,-1.7307l-16.911,-7.8705c-0.7281,-0.3393 -1.5228,0.3177 -1.3275,1.0962z" id="Fill 3"></path></g></g><path d="M6.35353,25.4168h7.37187" id="Stroke 6" fill="none" fill-rule="nonzero" stroke="#1d568c" stroke-width="1.8" stroke-linecap="round" stroke-linejoin="round"></path><path d="M6.35353,31.1566h7.37187" id="Stroke 8" fill="none" fill-rule="nonzero" stroke="#1d568c" stroke-width="1.8" stroke-linecap="round" stroke-linejoin="round"></path><path d="M6.35353,19.6433h20.20857" id="Stroke 10" fill="none" fill-rule="nonzero" stroke="#1d568c" stroke-width="1.8" stroke-linecap="round" stroke-linejoin="round"></path><path d="M11.7035,14.5825h-3.3273c-1.1169,0 -2.0223,-0.9054 -2.0223,-2.0223v-3.32727c0,-1.1178 0.9054,-2.0223 2.0223,-2.0223h3.3273c1.1169,0 2.0223,0.9045 2.0223,2.0223v3.32727c0,1.1169 -0.9054,2.0223 -2.0223,2.0223z" id="Stroke 12" fill="none" fill-rule="evenodd" stroke="#1d568c" stroke-width="1.8" stroke-linecap="round" stroke-linejoin="round"></path></g></g></g></svg>