<svg version="1.1" xmlns="http://www.w3.org/2000/svg" xmlns:xlink="http://www.w3.org/1999/xlink" width="122.88px" height="119.45px" viewBox="0,0,256,248.85417"><g fill="#2096b2" fill-rule="evenodd" stroke="none" stroke-width="1" stroke-linecap="butt" stroke-linejoin="miter" stroke-miterlimit="10" stroke-dasharray="" stroke-dashoffset="0" font-family="none" font-weight="none" font-size="none" text-anchor="none" style="mix-blend-mode: normal"><g transform="translate(0,0.01042) scale(2.08333,2.08333)"><g><path d="M11.9,40.47h99.81v2.84h-99.81v-2.84zM89.51,82.09v30.41h-7.11v-4.7h-41.92v4.7h-7.11v-30.41h-2.45v-4.68h5.98l3.33,-10.37c0.98,-3.05 2.62,-5.83 5.83,-5.83h31.98c3.21,0 5.06,2.72 5.83,5.83l2.58,10.37h5.5v4.68h-2.44v0zM50.79,98.42h21v4.95h-21v-4.95h0zM35.75,86.89c5.35,0.17 8.62,2.41 9.46,7.08h-9.46v-7.08zM86.46,86.89c-5.35,0.17 -8.62,2.41 -9.46,7.08h9.46v-7.08zM39.46,77.42h43.97l-1.88,-8.7c-0.52,-2.39 -2,-4.44 -4.44,-4.44h-30.42c-2.44,0 -3.7,2.12 -4.44,4.44l-2.79,8.7v0zM111.71,48.15v66.46h-99.81v-66.46h99.81zM7.06,42.79h-4.64h-2.42v-2.42v-11.93v-1.56l1.44,-0.64l57.68,-25.8l0.98,-0.44l0.97,0.43l60.36,26.77l1.45,0.64v1.57v10.95v2.42h-2.42h-3.91v74.24v2.42h-2.42h-104.65h-2.42v-2.42v-74.23z"></path></g></g></g></svg>