<svg version="1.1" xmlns="http://www.w3.org/2000/svg" xmlns:xlink="http://www.w3.org/1999/xlink" width="122.88px" height="98.86px" viewBox="0,0,256,205.95834"><g fill="#2096b2" fill-rule="evenodd" stroke="none" stroke-width="1" stroke-linecap="butt" stroke-linejoin="miter" stroke-miterlimit="10" stroke-dasharray="" stroke-dashoffset="0" font-family="none" font-weight="none" font-size="none" text-anchor="none" style="mix-blend-mode: normal"><g transform="translate(0.00333,0.03608) scale(2.08333,2.08333)"><path d="M5.91,37.6c0,-1.43 0.82,-2.83 2.15,-4.4l-7.67,-4.85c-0.49,-0.21 -0.48,-0.51 -0.2,-0.85l1.63,-1.39c0.29128,-0.20301 0.658,-0.26535 1,-0.17l9.46,1.6l7.84,-8.54l-18.41,-12.45c-0.47,-0.28 -0.51,-0.59 0,-1l2.63,-2.07l24,6.75l7.09,-7.58c2.38,-2.06 4.69,-3 6.46,-2.54c0.80218,0.07438 1.46269,0.66195 1.63,1.45c0.58,1.8 -0.33,4.21 -2.48,6.7l-7.58,7.09l6.75,24l-2.12,2.65c-0.36,0.48 -0.67,0.44 -0.94,0l-12.46,-18.42l-8.54,7.88l1.6,9.47c0.07965,0.32325 0.01782,0.66512 -0.17,0.94l-1.39,1.63c-0.34,0.28 -0.64,0.29 -0.85,-0.2l-4.85,-7.66c-1.58,1.32 -3,2.14 -4.42,2.14c-0.13,0 -0.16,-0.05 -0.16,-0.18zM39.71,68.09h-3.81l2.93,-11.29h5.58l2.93,11.29h-3.81l-0.42,-1.78h-3l-0.42,1.78zM41.52,60.27l-0.74,3.16h1.66l-0.72,-3.16zM48.43,68.09v-11.29h3.57v11.29zM64.1,68.09h-4l-1.48,-3.36h-0.78v3.36h-3.58v-11.29h5.74c2.58667,0 3.88,1.33333 3.88,4c0,1.81 -0.56,3 -1.68,3.58l1.95,3.75zM57.87,59.69v2.31h0.83c0.32209,0.01837 0.64469,-0.02578 0.95,-0.13c0.2,-0.09333 0.3,-0.30333 0.3,-0.63v-0.74c0,-0.32 -0.1,-0.53 -0.3,-0.62c-0.3044,-0.10862 -0.62721,-0.15619 -0.95,-0.14zM71.73,65.37h-2.34v2.72h-3.62v-11.29h5.69c2.59,0 3.89,1.4 3.89,4.18c0.10098,1.21516 -0.25567,2.4242 -1,3.39c-0.28477,0.29855 -0.62426,0.53958 -1,0.71c-0.49542,0.19987 -1.02585,0.29848 -1.56,0.29zM69.39,59.69v2.79h0.83c0.33943,0.02298 0.67993,-0.02469 1,-0.14c0.21232,-0.12975 0.32651,-0.37386 0.29,-0.62v-1.27c0.03651,-0.24614 -0.07768,-0.49025 -0.29,-0.62c-0.32007,-0.11531 -0.66057,-0.16298 -1,-0.14zM76.3,62.46c-0.12063,-1.57295 0.28382,-3.1415 1.15,-4.46c0.77,-0.94 2.16,-1.42 4.18,-1.42c2.02,0 3.37,0.42 4.17,1.42c0.88377,1.31235 1.30593,2.88137 1.2,4.46c-0.00432,0.85468 -0.10155,1.70635 -0.29,2.54c-0.14329,0.66393 -0.42998,1.28851 -0.84,1.83c-0.41766,0.54492 -0.98883,0.9524 -1.64,1.17c-1.70792,0.49695 -3.52208,0.49695 -5.23,0c-0.64482,-0.20938 -1.21469,-0.60204 -1.64,-1.13c-0.40822,-0.55505 -0.68827,-1.19371 -0.82,-1.87c-0.17455,-0.84857 -0.25503,-1.71379 -0.24,-2.58zM80.18,60.58v4.7h1.5c0.36579,0.02355 0.73205,-0.03806 1.07,-0.18c0.23,-0.11 0.34,-0.37 0.34,-0.78v-4.7h-1.52c-0.36139,-0.01919 -0.72273,0.03876 -1.06,0.17c-0.22,0.12 -0.33,0.38 -0.33,0.79zM98.47,68.09h-4l-1.47,-3.36h-0.77v3.36h-3.6v-11.29h5.69c2.59333,0 3.88667,1.33333 3.88,4c0,1.81 -0.56,3 -1.68,3.58l2,3.75zM92.24,59.69v2.31h0.83c0.3387,0.02504 0.67896,-0.01919 1,-0.13c0.2,-0.09333 0.3,-0.30333 0.3,-0.63v-0.74c0,-0.32 -0.1,-0.53 -0.3,-0.62c-0.32007,-0.11531 -0.66057,-0.16298 -1,-0.14zM108.18,59.69h-2.62v8.4h-3.56v-8.4h-2.67v-2.89h8.85zM72,29.72c4.97056,0 9,4.02944 9,9c0,4.97056 -4.02944,9 -9,9c-4.97056,0 -9,-4.02944 -9,-9c0,-4.97056 4.02944,-9 9,-9zM72,33.93c1.95041,-0.00405 3.71103,1.16774 4.46022,2.96853c0.7492,1.80079 0.33929,3.87559 -1.03843,5.25618c-1.37772,1.38058 -3.45167,1.7948 -5.25401,1.04934c-1.80234,-0.74545 -2.97778,-2.50363 -2.97778,-4.45405c-0.00266,-1.27742 0.50294,-2.50344 1.40528,-3.40765c0.90234,-0.90421 2.1273,-1.41235 3.40472,-1.41235zM36.62,73.46h11.9v5.59h-11.9zM59.75,73.46h24.59v5.59h-24.59zM95.57,73.46h11.89v5.59h-11.89zM95.57,84.37h11.89v5.63h-11.89zM59.75,84.37h24.59v5.63h-24.59zM36.62,84.37h11.9v5.63h-11.9zM119.69,95.64v-45.55h-28.07v-15.22l-19.53,-14.7l-19.61,14.7v15.22h-28.09v45.58h47.61h47.65zM122.88,48.5v50.33h-50.88h-50.84v-52h28.13v-13.54l22.81,-17.1l22.71,17.1v13.61h28.07z"></path></g></g></svg>