<svg version="1.1" xmlns="http://www.w3.org/2000/svg" xmlns:xlink="http://www.w3.org/1999/xlink" width="53.168" height="40.86" viewBox="0,0,256,196.72917"><g fill="#2096b2" fill-rule="nonzero" stroke="none" stroke-width="1" stroke-linecap="butt" stroke-linejoin="miter" stroke-miterlimit="10" stroke-dasharray="" stroke-dashoffset="0" font-family="none" font-weight="none" font-size="none" text-anchor="none" style="mix-blend-mode: normal"><g transform="translate(0,0.02126) scale(4.81493,4.81493)"><g transform="translate(-483,-583)" id="Group_3484"><rect x="483" y="616.925" width="53.168" height="1.45" id="Rectangle_949"></rect><path transform="translate(467.804,547.112)" d="M19.124,71.5c-1.4492,0 -2.624,1.1748 -2.624,2.624c0,1.4492 1.1748,2.624 2.624,2.624c1.4492,0 2.624,-1.1748 2.624,-2.624c0,-1.4492 -1.1748,-2.624 -2.624,-2.624zM19.124,75.249c-0.62132,0 -1.125,-0.50368 -1.125,-1.125c0,-0.62132 0.50368,-1.125 1.125,-1.125c0.62132,0 1.125,0.50368 1.125,1.125c0,0.62132 -0.50368,1.125 -1.125,1.125z" id="Path_20296"></path><path transform="translate(465.301,547.112)" d="M31.748,74.124c0,-1.4492 -1.1748,-2.624 -2.624,-2.624c-1.4492,0 -2.624,1.1748 -2.624,2.624c0,1.4492 1.1748,2.624 2.624,2.624c1.4492,0 2.624,-1.1748 2.624,-2.624zM27.999,74.124c0,-0.62132 0.50368,-1.125 1.125,-1.125c0.62132,0 1.125,0.50368 1.125,1.125c0,0.62132 -0.50368,1.125 -1.125,1.125c-0.62093,-0.00055 -1.124,-0.50407 -1.124,-1.125z" id="Path_20297"></path><path transform="translate(462.798,547.112)" d="M41.748,74.124c0,-1.4492 -1.1748,-2.624 -2.624,-2.624c-1.4492,0 -2.624,1.1748 -2.624,2.624c0,1.4492 1.1748,2.624 2.624,2.624c1.4492,0 2.624,-1.1748 2.624,-2.624zM37.999,74.124c0,-0.62132 0.50368,-1.125 1.125,-1.125c0.62132,0 1.125,0.50368 1.125,1.125c0,0.62132 -0.50368,1.125 -1.125,1.125c-0.62093,-0.00055 -1.124,-0.50407 -1.124,-1.125z" id="Path_20298"></path><path transform="translate(460.295,547.112)" d="M51.748,74.124c0,-1.4492 -1.1748,-2.624 -2.624,-2.624c-1.4492,0 -2.624,1.1748 -2.624,2.624c0,1.4492 1.1748,2.624 2.624,2.624c1.4492,0 2.624,-1.1748 2.624,-2.624zM47.999,74.124c0,-0.62132 0.50368,-1.125 1.125,-1.125c0.62132,0 1.125,0.50368 1.125,1.125c0,0.62132 -0.50368,1.125 -1.125,1.125c-0.62093,-0.00055 -1.124,-0.50407 -1.124,-1.125z" id="Path_20299"></path><path transform="translate(457.792,547.112)" d="M61.748,74.124c0,-1.4492 -1.1748,-2.624 -2.624,-2.624c-1.4492,0 -2.624,1.1748 -2.624,2.624c0,1.4492 1.1748,2.624 2.624,2.624c1.4492,0 2.624,-1.1748 2.624,-2.624zM57.999,74.124c0,-0.62132 0.50368,-1.125 1.125,-1.125c0.62132,0 1.125,0.50368 1.125,1.125c0,0.62132 -0.50368,1.125 -1.125,1.125c-0.62093,-0.00055 -1.124,-0.50407 -1.124,-1.125z" id="Path_20300"></path><path transform="translate(455.289,547.112)" d="M69.124,71.5c-1.4492,0 -2.624,1.1748 -2.624,2.624c0,1.4492 1.1748,2.624 2.624,2.624c1.4492,0 2.624,-1.1748 2.624,-2.624c0,-1.4492 -1.1748,-2.624 -2.624,-2.624zM69.124,75.249c-0.62132,0 -1.125,-0.50368 -1.125,-1.125c0,-0.62132 0.50368,-1.125 1.125,-1.125c0.62132,0 1.125,0.50368 1.125,1.125c0,0.62132 -0.50368,1.125 -1.125,1.125z" id="Path_20301"></path><path transform="translate(452.787,547.112)" d="M79.124,71.5c-1.4492,0 -2.624,1.1748 -2.624,2.624c0,1.4492 1.1748,2.624 2.624,2.624c1.4492,0 2.624,-1.1748 2.624,-2.624c0,-1.4492 -1.1748,-2.624 -2.624,-2.624zM79.124,75.249c-0.62132,0 -1.125,-0.50368 -1.125,-1.125c0,-0.62132 0.50368,-1.125 1.125,-1.125c0.62132,0 1.125,0.50368 1.125,1.125c0,0.62132 -0.50368,1.125 -1.125,1.125z" id="Path_20302"></path><path transform="translate(465.926,559)" d="M49.116,25.874c-0.49587,-0.02451 -0.96719,-0.22317 -1.331,-0.561c-1.22816,-0.93578 -2.75049,-1.40149 -4.292,-1.313c-1.54197,-0.08845 -3.06471,0.37763 -4.293,1.314c-0.36395,0.33762 -0.83519,0.53624 -1.331,0.561h-0.75v1.874h-10.5c-1.44617,0.0044 -2.6168,1.17683 -2.619,2.623v22.492c0.00165,1.44851 1.17549,2.62235 2.624,2.624h33.738c1.44851,-0.00165 2.62235,-1.17549 2.624,-2.624v-22.492c-0.00165,-1.44851 -1.17549,-2.62235 -2.624,-2.624h-10.5v-1.874zM38.616,27.286c0.52691,-0.15204 1.01864,-0.40657 1.447,-0.749c0.97519,-0.75902 2.19763,-1.12861 3.43,-1.037c1.23115,-0.09031 2.452,0.27958 3.426,1.038c0.42846,0.34228 0.92016,0.59679 1.447,0.749v0.462h-9.746zM31.5,39.208l-3.265,0.9l1.165,-4.508l2.1,2.058zM26.627,29.248h1.924c-0.3055,1.5411 -1.51,2.74599 -3.051,3.052v-1.927c0.00055,-0.6207 0.5033,-1.1239 1.124,-1.125zM25.5,52.864v-1.923c1.53869,0.30651 2.74149,1.50931 3.048,3.048h-1.925c-0.62031,-0.00165 -1.12245,-0.50469 -1.123,-1.125zM30.065,53.989c-0.33723,-2.36749 -2.19751,-4.22777 -4.565,-4.565v-15.612c2.36749,-0.33723 4.22777,-2.19751 4.565,-4.565h1.435v6.305l-1.43,-1.408c-0.28721,-0.3289 -0.73739,-0.46426 -1.15836,-0.34831c-0.42097,0.11595 -0.73835,0.46274 -0.81664,0.89231l-1.45,5.574c-0.12936,0.41366 -0.02277,0.86493 0.278,1.177c0.21242,0.20677 0.49861,0.32016 0.795,0.315c0.12916,-0.00109 0.2576,-0.01925 0.382,-0.054l3.4,-0.937v13.226zM32.997,53.989v-24.741h2.249v24.741zM55.488,42.721l3.48,1.239l-0.758,2.118l-2.722,-0.97zM60.361,53.989h-1.923c0.30651,-1.53869 1.50931,-2.74149 3.048,-3.048v1.924c-0.0011,0.62031 -0.50369,1.1229 -1.124,1.124zM61.486,30.373v1.927c-1.53869,-0.30651 -2.74149,-1.50931 -3.048,-3.048h1.924c0.6207,0.00055 1.1239,0.5033 1.125,1.124zM56.921,29.248c0.33723,2.36749 2.19751,4.22777 4.565,4.565v15.611c-2.36749,0.33723 -4.22777,2.19751 -4.565,4.565h-1.433v-7.289l3.631,1.294l1.763,-4.942l-5.394,-1.922v-11.882zM53.989,29.248v24.741h-2.249v-24.741zM50.24,53.989h-13.495v-24.741h13.495z" id="Path_20303"></path><path transform="translate(459.682,556.613)" d="M54.566,33.82l-5.24,-0.281l-0.378,7.113l5.241,0.28zM52.766,39.354l-2.246,-0.12l0.219,-4.118l2.246,0.121z" id="Path_20304"></path><path transform="translate(461.547,552.609)" d="M45.061,56.658c1.96643,0 3.56063,-1.59391 3.561,-3.56033c0.00037,-1.96643 -1.59324,-3.56093 -3.55967,-3.56167c-1.96643,-0.00074 -3.56123,1.59257 -3.56233,3.559c-0.00053,0.94478 0.37441,1.85105 1.04229,2.5193c0.66787,0.66825 1.57393,1.0437 2.51871,1.0437zM45.061,51.035c0.83427,-0.0004 1.58659,0.50195 1.90594,1.27268c0.31936,0.77073 0.14282,1.65795 -0.44724,2.24773c-0.59006,0.58978 -1.47737,0.76588 -2.24795,0.44615c-0.77058,-0.31973 -1.27256,-1.07229 -1.27175,-1.90656c0.0011,-1.13842 0.92458,-2.06055 2.063,-2.06z" id="Path_20305"></path></g></g></g></svg>