<svg version="1.1" xmlns="http://www.w3.org/2000/svg" xmlns:xlink="http://www.w3.org/1999/xlink" width="450" height="283" viewBox="0,0,256,160.98959"><g fill="none" fill-rule="nonzero" stroke="none" stroke-width="1" stroke-linecap="butt" stroke-linejoin="miter" stroke-miterlimit="10" stroke-dasharray="" stroke-dashoffset="0" font-family="none" font-weight="none" font-size="none" text-anchor="none" style="mix-blend-mode: normal"><g transform="translate(8.76538,-1.65532) scale(0.56889,0.56889)"><path d="M385.996,222.663c-3.469,1.066 -5.826,4.279 -5.811,7.907v0.164c0,28.515 -23.109,51.634 -51.624,51.645h-267.7699c-28.5201,0 -51.63964,-23.115 -51.64476,-51.635v-0.01c0,-28.52 23.12466,-51.645 51.64476,-51.645c4.0941,0.01 7.4196,-3.295 7.4298,-7.389c0,-0.922 -0.169,-1.839 -0.5021,-2.7c-2.2033,-5.611 -3.8379,-11.427 -4.8781,-17.36c-0.4406,-2.516 -2.6286,-4.351 -5.1854,-4.345c-31.8355,0 -57.64505,-25.8 -57.6553,-57.6352c0,-31.8406 25.8147,-57.6553 57.6553,-57.6553h166.6017c7.763,-0.0051 15.449,1.5628 22.587,4.6116c12.441,5.3751 25.845,8.1779 39.398,8.2394h72.812c50.22,0 90.936,40.7051 90.946,90.9255c0,39.854 -25.943,75.067 -64.004,86.882z" fill="#2096b2"></path><g><path d="M178.848,139.608h-209.6638v-4.191h205.4728v-171.285h4.191z" fill="#15244e"></path><path d="M336.232,138.404l73.022,12.206c0,0 20.081,1.394 18.164,18.892l-22.176,90.838h-87.006l18.001,-121.936z" fill="#071835"></path><path d="M339.434,138.773l25.072,4.361l-12.123,61.667c-2.542,12.928 -3.536,26.107 -2.957,39.271l0.707,16.186h-37.805l27.106,-121.48z" fill="#060c13"></path><path d="M238.138,71.4132c0,0 -0.538,17.3191 -4.499,26.8549c-3.961,9.5409 -9.177,19.4409 -2.342,28.2589l44.277,-19.143z" fill="#060c13"></path><path d="M161.467,224.257l-6.569,3.331l-9.879,6.046c-2.546,1.558 -4.647,3.756 -6.097,6.369l-6.953,12.574c-0.344,0.62 -0.098,1.404 0.538,1.717c1.009,0.497 2.49,0.835 3.448,-0.702l3.008,-3.782l0.143,5.119c0.026,0.866 0.877,1.471 1.696,1.194c1.158,-0.389 2.598,-1.501 3.203,-4.509l0.389,4.258c0.108,1.158 1.245,1.927 2.352,1.594c0.994,-0.298 2.075,-1.046 2.66,-2.793c1.26,-3.781 2.521,-9.72 2.521,-9.72l2.971,-2.752l-2.428,7.251l-0.672,8.941c-0.092,1.204 0.984,2.183 2.168,1.952c1.245,-0.241 2.639,-0.978 3.182,-2.977c0.661,-2.429 2.475,-6.005 3.776,-8.408c0.856,-1.584 2.516,-2.567 4.315,-2.567h2.167c0,0 -1.609,0.948 -2.429,2.982c-0.604,1.506 0.021,3.228 1.415,4.058c1.844,1.097 4.75,2.383 7.306,1.604c0,0 4.679,-1.44 3.059,-9.177l1.62,-11.16l-16.92,-10.438z" fill="#efbfa1"></path><path d="M280.524,103.94l-33.296,7.558c0,0 -16.74,2.163 -25.738,19.62l-34.039,51.348c-4.975,7.506 -3.382,17.565 3.669,23.17c7.594,6.031 18.651,4.668 24.554,-3.023l5.278,-6.881c0,0 1.081,11.334 8.639,18.533l3.238,46.08h98.089v-47.504c0,0 14.399,-42.304 17.637,-72.725c0,0 0.251,-10.499 -9.561,-18.165c-2.921,-2.28 -6.288,-3.915 -9.864,-4.878z" fill="#fff67e"></path><path d="M200.072,185.653l-12.621,-3.187c0,0 -22.115,16.145 -32.553,45.122c0,0 11.699,-0.918 22.587,13.307l30.59,-32.63l-8.003,-22.617z" fill="#fff67e"></path><path d="M249.928,68.8461l3.961,47.5149l-1.696,29.002c-0.19,3.213 -0.082,6.43 0.323,9.623l1.373,10.893l4.919,-15.782c1.394,-4.468 3.418,-8.716 6.016,-12.61l11.923,-17.883l22.387,-15.658l2.091,-57.2356z" fill="#efbfa1"></path><path d="M287.185,86.4265l7.588,-36.939l-44.85,19.3534l3.961,47.5151l-0.922,15.761l14.741,-12.63c9.982,-8.552 16.833,-20.1839 19.482,-33.0605z" fill="#d88e74"></path><path d="M229.683,43.1953c0,0 -3.535,4.2632 -4.196,7.4401c-0.661,3.1768 2.101,22.4738 2.101,22.4738c0,0 3.689,11.0679 12.523,10.3761l-2.865,-37.7741l-7.558,-2.521z" fill="#fcf1eb"></path><path d="M239.024,26.076c-0.066,0.0615 -0.128,0.123 -0.194,0.1896c-4.166,4.0941 -6.298,9.8278 -5.903,15.6538l2.874,42.273c0.292,4.3093 1.891,8.4239 4.581,11.7954l1.45,1.8191c2.67,3.3511 6.431,5.6521 10.633,6.5071l4.237,0.866c3.556,0.728 7.251,0.374 10.607,-1.004l12.144,-4.9959c9.3,-3.8276 15.736,-12.4667 16.73,-22.479l2.592,-26.0658c0,0 -10.642,-31.2308 -46.182,-30.2111c-5.068,0.1435 -9.926,2.1265 -13.574,5.6467z" fill="#efbfa1"></path><path d="M290.31,57.5066l-5.8,15.6077c0,0 -6.436,16.0637 -0.441,23.6216l14.706,-9.0848l-8.47,-30.1445z" fill="#d88e74"></path><path d="M259.869,100.774l-0.205,-1.8654l9.858,-1.076c3.495,-0.3843 6.759,-1.778 9.449,-4.0326l15.259,-12.81l1.204,1.4347l-15.259,12.81c-2.972,2.4954 -6.584,4.0377 -10.448,4.463z" fill="#fcf1ec"></path><path d="M258.916,102.26c2.603,0 4.714,-1.028 4.714,-2.2959c0,-1.2678 -2.111,-2.2955 -4.714,-2.2955c-2.604,0 -4.714,1.0277 -4.714,2.2955c0,1.2679 2.11,2.2959 4.714,2.2959z" fill="#fcf1eb"></path><path d="M252.536,25.7378c0,0 24.437,10.4837 29.228,17.3909c4.791,6.9072 7.276,11.5034 7.383,15.8639l2.808,28.6585v19.3739l40.275,11.073c0,0 -8.598,-11.191 -10.935,-24.6875c-2.341,-13.4966 -15.203,-60.9807 -15.203,-60.9807c0,0 -0.814,-19.8299 -22.053,-27.21358c-21.239,-7.37856 -26.584,-1.97787 -26.584,-1.97787c0,0 -13.87,-0.30232 -21.095,9.56655c-7.22,9.8688 -11.878,25.4662 -8.562,31.7944c3.32,6.3281 6.133,12.1336 6.133,12.1336l-0.661,-9.71c-0.277,-4.0889 0.851,-8.1522 3.197,-11.5085c3.162,-4.5193 8.47,-9.7817 16.064,-9.7817z" fill="#060c13"></path><path d="M298.796,45.7163l-4.146,0.1179c0,0 -3.822,1.5013 -4.34,5.1906c-0.512,3.6893 -3.125,23.2783 -3.125,23.2783c0,0 -0.272,12.3437 12.866,11.8569l-1.26,-40.4437z" fill="#f1d5c5"></path><path d="M301.225,41.6222c0,0 -4.12,1.2912 -6.574,4.2119c-0.948,1.1273 -1.527,2.5262 -1.697,3.9916l-2.531,22.1562c0,0 -1.347,8.5776 5.401,13.2968c0,0 6.328,2.5107 9.151,-1.7883c2.434,-3.7046 3.772,-26.8344 4.094,-33.1164c0.103,-1.9881 -0.43,-3.9711 -1.583,-5.5903c-1.158,-1.6294 -3.084,-3.1359 -6.261,-3.1564z" fill="#fcf1eb"></path><path d="M291.955,87.6511l-2.485,11.7289c-0.456,2.152 -1.281,4.202 -2.449,6.067c-2.08,3.33 -5.334,9.474 -5.257,15.269c0,0 24.769,-17.949 24.948,-18.308c0.18,-0.358 -14.757,-14.7569 -14.757,-14.7569z" fill="#d88e74"></path><path d="M298.775,165.879l-21.131,5.196l2.162,-41.217c0,0 -0.179,-10.802 7.02,-14.937l9.541,-14.9364l-3.059,-7.9217c0,0 -3.418,3.9608 -6.118,0.538c0,0 -2.08,0.7481 -3.315,-0.6456c-0.467,-0.5278 -0.364,-1.3476 0.2,-1.7729l8.516,-6.405l-3.07,-1.1171c-1.137,-0.415 -2.034,-1.3066 -2.439,-2.4441c-0.005,-0.0205 -0.015,-0.041 -0.02,-0.0615c-0.482,-1.3886 0.758,-2.767 2.198,-2.48l8.014,1.6038c0,0 -1.143,-1.6704 -1.409,-3.4023c-0.195,-1.2657 1.312,-2.0753 2.27,-1.2298c2.552,2.2494 7.286,6.3845 7.419,6.2513c0.18,-0.1794 8.998,17.0988 8.998,17.0988c0,0 3.689,7.8295 1.168,11.2475c-2.521,3.417 -17.278,19.978 -17.278,19.978l0.344,36.652z" fill="#efbfa1"></path><path d="M272.351,173.13l26.424,-7.251c0,0 -20.106,2.562 -26.424,7.251z" fill="#cf5b39"></path><path d="M300.051,167.744l2.342,16.556l15.838,-43.195z" fill="#fff67e"></path><path d="M302.572,185.74l4.499,25.917c0,0 -0.538,-18.539 -4.499,-25.917z" fill="#cf5b39"></path><path d="M306.533,194.379c0,0 5.042,6.841 3.961,10.981z" fill="#cf5b39"></path><path d="M272.351,211.677l4.401,25.093c1.087,6.205 5.34,11.452 11.253,13.619c0.133,0.052 0.271,0.098 0.41,0.144c4.698,1.588 9.874,0.748 13.927,-2.111c6.804,-4.796 21.572,-16.884 28.571,-35.586v47.504h-50.692c0,0 -7.86,-29.745 -7.875,-48.663z" fill="#fff67e"></path><path d="M232.881,168.733c0,0 -12.739,14.491 -11.929,26.999c0.092,0.092 -5.278,6.881 -5.278,6.881c0,0 -1.009,-20.47 17.207,-33.874z" fill="#fff67e"></path><path d="M186.375,192.806c0,0 9.879,3.556 10.576,12.554z" fill="#fff67e"></path><path d="M188.286,190.782c0,0 4.32,-1.081 7.738,4.319z" fill="#fff67e"></path><path d="M246.347,205.36c0,0 3.31,11.877 17.349,14.219c0,0 -17.421,0.722 -17.349,-14.219z" fill="#fff67e"></path><path d="M238.138,135.345c0,0 5.616,0.005 8.209,3.782c2.592,3.776 4.57,12.953 4.57,12.953l2.972,13.794l-15.746,-30.534z" fill="#fff67e"></path><path d="M257.455,154.437l14.901,-20.301c0,0 3.402,-2.813 5.293,-0.891l-3.689,-4.735c0,0 -12.308,9.567 -16.505,25.927z" fill="#fff67e"></path><path d="M249.165,74.9642c0,-1.7473 1.081,-3.2384 2.608,-3.8482c-0.472,-0.1895 -0.989,-0.292 -1.532,-0.292c-2.286,0 -4.14,1.8549 -4.14,4.1402c0,2.2853 1.854,4.1402 4.14,4.1402c0.543,0 1.055,-0.1025 1.532,-0.2921c-1.527,-0.6098 -2.608,-2.1008 -2.608,-3.8481z" fill="#d88e74"></path><path d="M261.539,63.6247c0.945,0 1.712,-1.3696 1.712,-3.0591c0,-1.6894 -0.767,-3.059 -1.712,-3.059c-0.945,0 -1.711,1.3696 -1.711,3.059c0,1.6895 0.766,3.0591 1.711,3.0591z" fill="#060c13"></path><path d="M241.561,65.0646c0.945,0 1.711,-1.3696 1.711,-3.059c0,-1.6895 -0.766,-3.0591 -1.711,-3.0591c-0.945,0 -1.712,1.3696 -1.712,3.0591c0,1.6894 0.767,3.059 1.712,3.059z" fill="#060c13"></path><path d="M245.921,85.8372l15.885,-1.9624c0,0 -3.603,10.5861 -15.885,1.9624z" fill="#fcf1eb"></path><path d="M438.978,260.253h-427.3363v64.424h427.3363z" fill="#060c13"></path><path d="M62.6613,260.253h135.5197c1.194,0 2.162,0.969 2.162,2.163v3.955h-139.844v-3.955c0,-1.194 0.9685,-2.163 2.1623,-2.163z" fill="#f6ded4"></path><path d="M41.6068,198.698h81.9742c2.065,0 3.863,1.404 4.365,3.408l16.064,64.265h-91.2482l-15.5206,-62.082c-0.7123,-2.839 1.4398,-5.591 4.3656,-5.591z" fill="#fcf1eb"></path><path d="M257.455,3.24345c0,0 23.883,-2.70035 34.142,12.77925c10.258,15.4796 8.459,27.8797 8.459,27.8797l4.607,0.702c0,0 2.859,-17.7905 -8.793,-32.5477c-11.652,-14.75709 -34.397,-13.67593 -38.415,-8.81325z" fill="#fcf1eb"></path><path d="M258.147,52.3212c0,0 4.14,-1.8652 8.788,2.0086l-3.018,-0.7481c-1.363,-0.3382 -2.777,-0.3792 -4.161,-0.123l-2.459,0.4612l0.845,-1.5987z" fill="#071835"></path><path d="M243.897,52.9156c0,0 -4.391,-1.1529 -8.336,3.433l2.848,-1.2349c1.287,-0.5585 2.68,-0.8352 4.079,-0.8095l2.506,0.0461l-1.102,-1.4347z" fill="#071835"></path><path d="M154.898,242.201l2.639,-6.19c0,0 -2.639,2.814 -2.639,6.19z" fill="#d88e74"></path><path d="M144.01,251.614l0.81,-9.295c0,0 -1.799,3.987 -0.81,9.295z" fill="#d88e74"></path><path d="M167.406,246.393c0,0 5.309,0.989 6.39,1.89c0,0 -3.059,-3.238 -6.39,-1.89z" fill="#d88e74"></path><path d="M228.003,279.858h-63.574l65.388,-13.487h59.177z" fill="#fcf1ec"></path><path d="M226.604,278.894l56.61,-12.523h-53.397l-60.699,12.523z" fill="#f6ded4"></path><path d="M225.564,278.408h-63.574l65.387,-13.487h59.178z" fill="#fcf1ec"></path><path d="M172.669,-16.8016h-155.8828v146.7056h155.8828z" fill="#f6ded4"></path><g><path d="M124.908,77.9309l0.461,2.3058l-1.901,-0.8454z" fill="#e1e1e1"></path><path d="M112.948,76.3425l21.224,-8.3931c0.42,-0.164 0.881,-0.1845 1.312,-0.0615l1.742,0.5124l-13.779,11.0166z" fill="#fdf7f4"></path><g fill="#8b8b8b" style="mix-blend-mode: screen"><path d="M134.285,67.9032l-21.342,8.4392l0.641,0.1845l21.869,-8.6442l-0.092,-0.0256c-0.354,-0.1025 -0.733,-0.0871 -1.071,0.0512z" style="mix-blend-mode: normal"></path></g><path d="M123.027,79.9139l4.678,1.9625l9.721,-13.4146l-1.568,-0.4612z" fill="#fdf7f4"></path><path d="M125.758,79.7653l-0.082,-0.082l4.622,-4.5194l1.917,0.5586l-0.036,0.1076l-1.85,-0.5381z" fill="#fdf7f4"></path><path d="M130.626,72.8858l-0.032,0.1082l2.98,0.8726l0.032,-0.1082z" fill="#fdf7f4"></path><path d="M114.839,85.5861c-2.044,-0.0717 -4.074,-0.3945 -6.036,-0.9735l-43.7282,-12.8049c-2.3212,-0.6815 -4.5143,-1.7422 -6.5178,-3.1564l-5.4519,-3.8481c-1.3476,-0.948 -0.7276,-3.0642 0.9172,-3.1359l7.6091,-0.3382c1.8242,-0.082 3.6227,0.1332 5.3495,0.6405l50.2661,14.7213c3.044,0.8915 5.975,2.1367 8.726,3.7149l5.56,3.182c0.548,0.3125 0.81,0.9633 0.63,1.5679c-0.174,0.5995 -0.732,0.9992 -1.358,0.9787l-15.971,-0.5483z" fill="#fdf7f4"></path><path d="M60.3197,62.892c0.3484,0.1025 0.7122,-0.0974 0.8147,-0.4458c0.1025,-0.3485 -0.0974,-0.7123 -0.4458,-0.8147l-0.7635,-0.2255l-4.0531,0.1793l4.4477,1.3015z" fill="#1d2844"></path><path d="M58.885,62.5897l-0.0923,-0.0974l1.6346,-1.0196l0.0922,0.0973z" fill="#fdf7f4"></path><path d="M118.841,80.9285l-0.748,0.1537c-0.256,0.0512 -0.272,0.415 -0.021,0.4868l16.669,5.0317l7.014,1.5834z" fill="#f4d3c1"></path><path d="M52.4185,63.0355c-0.1384,0.6252 0.0563,1.3271 0.6866,1.7729l5.4519,3.8482c2.0035,1.4142 4.1966,2.4748 6.5177,3.1563l43.7283,12.8049c1.962,0.5739 3.992,0.9018 6.036,0.9736l15.972,0.5482c0.123,0 0.24,-0.0102 0.353,-0.041l-78.7455,-23.058z" fill="#f4d3c1"></path><path d="M116.233,85.335c-2.101,-0.0871 -4.192,-0.4304 -6.216,-1.0248l-45.0704,-13.1994c-2.3877,-0.702 -4.6526,-1.7831 -6.7278,-3.2178l-5.6364,-3.8994c-0.0512,-0.0359 -0.0922,-0.0717 -0.1383,-0.1127c0.0973,0.3484 0.3125,0.6763 0.661,0.9223l5.4519,3.8481c2.0035,1.4142 4.1966,2.4749 6.5177,3.1564l43.7283,12.8049c1.962,0.5739 3.992,0.9018 6.036,0.9735l15.972,0.5483c0.123,0 0.24,-0.0102 0.353,-0.041l-0.553,-0.164z" fill="#f4d3c1"></path><path d="M68.9152,64.5631l-0.536,-0.157c-0.0272,-0.0079 -0.0557,0.0076 -0.0636,0.0348l-0.2477,0.8458c-0.0079,0.0272 0.0076,0.0556 0.0348,0.0636l0.536,0.1569c0.0272,0.008 0.0556,-0.0076 0.0636,-0.0347l0.2476,-0.8459c0.008,-0.0271 -0.0076,-0.0556 -0.0347,-0.0635z" fill="#1d2844"></path><path d="M70.1432,64.9199l-0.536,-0.157c-0.0272,-0.0079 -0.0556,0.0077 -0.0636,0.0348l-0.2477,0.8458c-0.0079,0.0272 0.0077,0.0556 0.0348,0.0636l0.536,0.1569c0.0272,0.008 0.0557,-0.0076 0.0636,-0.0347l0.2477,-0.8458c0.0079,-0.0272 -0.0077,-0.0557 -0.0348,-0.0636z" fill="#1d2844"></path><path d="M71.3763,65.2766l-0.536,-0.157c-0.0272,-0.0079 -0.0556,0.0076 -0.0636,0.0348l-0.2476,0.8458c-0.008,0.0272 0.0076,0.0556 0.0348,0.0636l0.536,0.1569c0.0271,0.008 0.0556,-0.0076 0.0635,-0.0347l0.2477,-0.8459c0.008,-0.0271 -0.0076,-0.0556 -0.0348,-0.0635z" fill="#1d2844"></path><path d="M72.5994,65.637l-0.536,-0.1569c-0.0272,-0.008 -0.0556,0.0076 -0.0636,0.0348l-0.2476,0.8458c-0.008,0.0271 0.0076,0.0556 0.0348,0.0636l0.536,0.1569c0.0271,0.008 0.0556,-0.0076 0.0635,-0.0348l0.2477,-0.8458c0.008,-0.0271 -0.0076,-0.0556 -0.0348,-0.0636z" fill="#1d2844"></path><path d="M73.8274,65.9937l-0.536,-0.1569c-0.0271,-0.008 -0.0556,0.0076 -0.0636,0.0348l-0.2476,0.8458c-0.008,0.0271 0.0076,0.0556 0.0348,0.0636l0.536,0.1569c0.0271,0.0079 0.0556,-0.0076 0.0636,-0.0348l0.2476,-0.8458c0.008,-0.0272 -0.0076,-0.0556 -0.0348,-0.0636z" fill="#1d2844"></path><path d="M75.0591,66.3606l-0.536,-0.157c-0.0271,-0.0079 -0.0556,0.0076 -0.0636,0.0348l-0.2476,0.8458c-0.008,0.0272 0.0076,0.0556 0.0348,0.0636l0.536,0.1569c0.0271,0.008 0.0556,-0.0076 0.0636,-0.0348l0.2476,-0.8458c0.008,-0.0271 -0.0076,-0.0556 -0.0348,-0.0635z" fill="#1d2844"></path><path d="M76.2822,66.7158l-0.536,-0.157c-0.0271,-0.0079 -0.0556,0.0076 -0.0635,0.0348l-0.2477,0.8458c-0.008,0.0272 0.0076,0.0556 0.0348,0.0636l0.536,0.1569c0.0271,0.008 0.0556,-0.0076 0.0636,-0.0347l0.2476,-0.8459c0.008,-0.0271 -0.0076,-0.0556 -0.0348,-0.0635z" fill="#1d2844"></path><path d="M77.5154,67.0776l-0.536,-0.157c-0.0272,-0.0079 -0.0556,0.0077 -0.0636,0.0348l-0.2476,0.8458c-0.008,0.0272 0.0076,0.0557 0.0347,0.0636l0.536,0.157c0.0272,0.0079 0.0557,-0.0077 0.0636,-0.0348l0.2477,-0.8458c0.0079,-0.0272 -0.0076,-0.0557 -0.0348,-0.0636z" fill="#1d2844"></path><path d="M78.7434,67.4344l-0.536,-0.1569c-0.0272,-0.008 -0.0556,0.0076 -0.0636,0.0347l-0.2477,0.8459c-0.0079,0.0271 0.0077,0.0556 0.0348,0.0635l0.536,0.157c0.0272,0.0079 0.0557,-0.0076 0.0636,-0.0348l0.2477,-0.8458c0.0079,-0.0272 -0.0076,-0.0556 -0.0348,-0.0636z" fill="#1d2844"></path><path d="M79.9665,67.7948l-0.536,-0.157c-0.0272,-0.0079 -0.0557,0.0076 -0.0636,0.0348l-0.2477,0.8458c-0.0079,0.0272 0.0077,0.0556 0.0348,0.0636l0.536,0.1569c0.0272,0.008 0.0556,-0.0076 0.0636,-0.0347l0.2477,-0.8459c0.0079,-0.0271 -0.0077,-0.0556 -0.0348,-0.0635z" fill="#1d2844"></path><path d="M81.1996,68.1516l-0.536,-0.157c-0.0271,-0.0079 -0.0556,0.0076 -0.0636,0.0348l-0.2476,0.8458c-0.008,0.0272 0.0076,0.0556 0.0348,0.0636l0.536,0.1569c0.0271,0.008 0.0556,-0.0076 0.0635,-0.0347l0.2477,-0.8459c0.008,-0.0271 -0.0076,-0.0556 -0.0348,-0.0635z" fill="#1d2844"></path><path d="M83.6493,68.8736l-0.536,-0.1569c-0.0272,-0.008 -0.0556,0.0076 -0.0636,0.0347l-0.2476,0.8459c-0.008,0.0271 0.0076,0.0556 0.0347,0.0635l0.5361,0.157c0.0271,0.0079 0.0556,-0.0076 0.0635,-0.0348l0.2477,-0.8458c0.0079,-0.0272 -0.0076,-0.0556 -0.0348,-0.0636z" fill="#1d2844"></path><path d="M86.124,69.5948l-0.536,-0.1569c-0.0272,-0.008 -0.0557,0.0076 -0.0636,0.0347l-0.2477,0.8459c-0.0079,0.0271 0.0076,0.0556 0.0348,0.0635l0.536,0.157c0.0272,0.0079 0.0556,-0.0076 0.0636,-0.0348l0.2476,-0.8458c0.008,-0.0272 -0.0076,-0.0556 -0.0347,-0.0636z" fill="#1d2844"></path><path d="M87.672,70.0474l-0.5361,-0.1569c-0.0271,-0.008 -0.0556,0.0076 -0.0635,0.0348l-0.2477,0.8458c-0.0079,0.0271 0.0076,0.0556 0.0348,0.0636l0.536,0.1569c0.0272,0.008 0.0556,-0.0076 0.0636,-0.0348l0.2476,-0.8458c0.008,-0.0271 -0.0076,-0.0556 -0.0347,-0.0636z" fill="#1d2844"></path><path d="M91.0348,71.0356l-0.536,-0.1569c-0.0272,-0.008 -0.0556,0.0076 -0.0636,0.0347l-0.2476,0.8459c-0.008,0.0271 0.0076,0.0556 0.0347,0.0635l0.5361,0.157c0.0271,0.0079 0.0556,-0.0076 0.0635,-0.0348l0.2477,-0.8458c0.0079,-0.0272 -0.0076,-0.0556 -0.0348,-0.0636z" fill="#1d2844"></path><path d="M92.8745,71.5769l-0.536,-0.157c-0.0272,-0.0079 -0.0557,0.0076 -0.0636,0.0348l-0.2477,0.8458c-0.0079,0.0272 0.0076,0.0556 0.0348,0.0636l0.536,0.1569c0.0272,0.008 0.0556,-0.0076 0.0636,-0.0347l0.2476,-0.8459c0.008,-0.0271 -0.0076,-0.0556 -0.0347,-0.0635z" fill="#1d2844"></path><path d="M94.1076,71.9337l-0.536,-0.157c-0.0272,-0.0079 -0.0556,0.0076 -0.0636,0.0348l-0.2476,0.8458c-0.008,0.0272 0.0076,0.0556 0.0347,0.0636l0.5361,0.1569c0.0271,0.008 0.0556,-0.0076 0.0635,-0.0347l0.2477,-0.8459c0.0079,-0.0271 -0.0076,-0.0556 -0.0348,-0.0635z" fill="#1d2844"></path><path d="M95.3356,72.2955l-0.536,-0.157c-0.0271,-0.0079 -0.0556,0.0077 -0.0635,0.0348l-0.2477,0.8458c-0.0079,0.0272 0.0076,0.0557 0.0348,0.0636l0.536,0.157c0.0272,0.0079 0.0556,-0.0077 0.0636,-0.0348l0.2476,-0.8458c0.008,-0.0272 -0.0076,-0.0557 -0.0348,-0.0636z" fill="#1d2844"></path><path d="M96.5573,72.6557l-0.536,-0.1569c-0.0272,-0.008 -0.0556,0.0076 -0.0636,0.0348l-0.2476,0.8458c-0.008,0.0271 0.0076,0.0556 0.0347,0.0635l0.536,0.157c0.0272,0.0079 0.0557,-0.0076 0.0636,-0.0348l0.2477,-0.8458c0.0079,-0.0272 -0.0076,-0.0556 -0.0348,-0.0636z" fill="#1d2844"></path><path d="M86.9338,73.2988l-0.9429,-0.2767c-0.3176,-0.0922 -0.5021,-0.4304 -0.4099,-0.7481l0.825,-2.808c0.0922,-0.3176 0.4304,-0.5021 0.7481,-0.4099l0.9428,0.2767c0.3177,0.0922 0.5022,0.4304 0.4099,0.7481l-0.8249,2.808c-0.0923,0.3177 -0.4305,0.5021 -0.7481,0.4099zM87.108,69.2098c-0.2357,-0.0666 -0.4817,0.0666 -0.5534,0.3024l-0.825,2.8079c-0.0666,0.2357 0.0666,0.4817 0.3023,0.5534l0.9428,0.2767c0.2358,0.0666 0.4817,-0.0666 0.5534,-0.3023l0.825,-2.808c0.0666,-0.2357 -0.0666,-0.4816 -0.3023,-0.5534z" fill="#1d2844"></path><path d="M90.3002,74.2877l-0.9428,-0.2767c-0.3177,-0.0922 -0.5022,-0.4304 -0.4099,-0.7481l0.8249,-2.808c0.0923,-0.3177 0.4305,-0.5021 0.7481,-0.4099l0.9429,0.2767c0.3176,0.0922 0.5021,0.4304 0.4099,0.7481l-0.825,2.808c-0.0922,0.3176 -0.4304,0.5021 -0.7481,0.4099zM90.4744,70.1987c-0.2357,-0.0666 -0.4816,0.0666 -0.5534,0.3023l-0.8249,2.808c-0.0666,0.2357 0.0666,0.4817 0.3023,0.5534l0.9428,0.2767c0.2357,0.0666 0.4817,-0.0666 0.5534,-0.3023l0.825,-2.808c0.0666,-0.2357 -0.0666,-0.4816 -0.3024,-0.5534z" fill="#1d2844"></path><path d="M99.2784,73.4497l-0.536,-0.157c-0.0272,-0.0079 -0.0556,0.0076 -0.0636,0.0348l-0.2476,0.8458c-0.008,0.0272 0.0076,0.0556 0.0347,0.0636l0.536,0.1569c0.0272,0.008 0.0557,-0.0076 0.0636,-0.0347l0.2477,-0.8459c0.0079,-0.0271 -0.0076,-0.0556 -0.0348,-0.0635z" fill="#1d2844"></path><path d="M100.512,73.8115l-0.5365,-0.157c-0.0271,-0.0079 -0.0556,0.0077 -0.0635,0.0348l-0.2477,0.8458c-0.0079,0.0272 0.0076,0.0556 0.0348,0.0636l0.5359,0.1569c0.027,0.008 0.056,-0.0076 0.064,-0.0347l0.247,-0.8458c0.008,-0.0272 -0.007,-0.0557 -0.034,-0.0636z" fill="#1d2844"></path><path d="M101.735,74.1668l-0.536,-0.1569c-0.028,-0.008 -0.056,0.0076 -0.064,0.0348l-0.248,0.8458c-0.008,0.0271 0.008,0.0556 0.035,0.0635l0.536,0.157c0.027,0.0079 0.056,-0.0076 0.064,-0.0348l0.247,-0.8458c0.008,-0.0272 -0.007,-0.0556 -0.034,-0.0636z" fill="#1d2844"></path><path d="M102.968,74.5288l-0.536,-0.157c-0.027,-0.0079 -0.056,0.0076 -0.064,0.0348l-0.247,0.8458c-0.008,0.0272 0.007,0.0556 0.034,0.0636l0.536,0.1569c0.027,0.008 0.056,-0.0076 0.064,-0.0347l0.248,-0.8459c0.008,-0.0271 -0.008,-0.0556 -0.035,-0.0635z" fill="#1d2844"></path><path d="M104.194,74.8903l-0.536,-0.1569c-0.027,-0.008 -0.055,0.0076 -0.063,0.0348l-0.248,0.8458c-0.008,0.0271 0.008,0.0556 0.035,0.0636l0.536,0.1569c0.027,0.008 0.056,-0.0076 0.063,-0.0348l0.248,-0.8458c0.008,-0.0271 -0.007,-0.0556 -0.035,-0.0636z" fill="#1d2844"></path><path d="M105.417,75.2508l-0.536,-0.1569c-0.027,-0.008 -0.055,0.0076 -0.063,0.0347l-0.248,0.8459c-0.008,0.0271 0.008,0.0556 0.035,0.0635l0.536,0.157c0.027,0.0079 0.056,-0.0076 0.064,-0.0348l0.247,-0.8458c0.008,-0.0272 -0.007,-0.0556 -0.035,-0.0636z" fill="#1d2844"></path><path d="M106.651,75.6075l-0.536,-0.1569c-0.028,-0.008 -0.056,0.0076 -0.064,0.0347l-0.248,0.8459c-0.008,0.0271 0.008,0.0556 0.035,0.0635l0.536,0.157c0.027,0.0079 0.056,-0.0076 0.064,-0.0348l0.247,-0.8458c0.008,-0.0272 -0.007,-0.0556 -0.034,-0.0636z" fill="#1d2844"></path><path d="M107.879,75.9693l-0.536,-0.1569c-0.028,-0.008 -0.056,0.0076 -0.064,0.0347l-0.248,0.8459c-0.008,0.0271 0.008,0.0556 0.035,0.0635l0.536,0.157c0.027,0.0079 0.056,-0.0076 0.064,-0.0348l0.247,-0.8458c0.008,-0.0272 -0.007,-0.0556 -0.034,-0.0636z" fill="#1d2844"></path><path d="M109.102,76.3247l-0.536,-0.157c-0.027,-0.0079 -0.056,0.0076 -0.064,0.0348l-0.248,0.8458c-0.007,0.0272 0.008,0.0556 0.035,0.0636l0.536,0.1569c0.027,0.008 0.056,-0.0076 0.064,-0.0347l0.247,-0.8459c0.008,-0.0271 -0.007,-0.0556 -0.034,-0.0635z" fill="#1d2844"></path><path d="M110.333,76.6862l-0.536,-0.1569c-0.027,-0.008 -0.055,0.0076 -0.063,0.0348l-0.248,0.8458c-0.008,0.0271 0.008,0.0556 0.035,0.0636l0.536,0.1569c0.027,0.008 0.056,-0.0076 0.064,-0.0348l0.247,-0.8458c0.008,-0.0271 -0.007,-0.0556 -0.035,-0.0636z" fill="#1d2844"></path><path d="M111.561,77.0482l-0.536,-0.157c-0.027,-0.0079 -0.055,0.0077 -0.063,0.0348l-0.248,0.8458c-0.008,0.0272 0.008,0.0556 0.035,0.0636l0.536,0.1569c0.027,0.008 0.056,-0.0076 0.064,-0.0347l0.247,-0.8459c0.008,-0.0271 -0.007,-0.0556 -0.035,-0.0635z" fill="#1d2844"></path><path d="M112.79,77.4034l-0.536,-0.1569c-0.028,-0.008 -0.056,0.0076 -0.064,0.0347l-0.248,0.8458c-0.008,0.0272 0.008,0.0557 0.035,0.0636l0.536,0.157c0.027,0.0079 0.056,-0.0077 0.064,-0.0348l0.247,-0.8458c0.008,-0.0272 -0.007,-0.0556 -0.034,-0.0636z" fill="#1d2844"></path><path d="M114.018,77.7653l-0.536,-0.1569c-0.028,-0.008 -0.056,0.0076 -0.064,0.0348l-0.248,0.8458c-0.008,0.0271 0.008,0.0556 0.035,0.0636l0.536,0.1569c0.027,0.008 0.056,-0.0076 0.064,-0.0348l0.247,-0.8458c0.008,-0.0272 -0.007,-0.0556 -0.034,-0.0636z" fill="#1d2844"></path><path d="M65.7921,66.8426l-0.9736,-0.2869c-0.3074,-0.0923 -0.4867,-0.4151 -0.3945,-0.7225l0.7635,-2.603c0.0922,-0.3074 0.415,-0.4868 0.7225,-0.3946l0.9735,0.287c0.3075,0.0922 0.4868,0.415 0.3946,0.7225l-0.7635,2.603c-0.0922,0.3074 -0.4151,0.4867 -0.7225,0.3945zM65.8638,62.9842c-0.2305,-0.0666 -0.4662,0.0667 -0.5329,0.2921l-0.7634,2.603c-0.0666,0.2306 0.0666,0.4663 0.292,0.5329l0.9736,0.2869c0.2306,0.0667 0.4663,-0.0666 0.5329,-0.292l0.7635,-2.603c0.0666,-0.2306 -0.0666,-0.4663 -0.2921,-0.5329z" fill="#1d2844"></path><path d="M115.024,81.2616l-0.974,-0.287c-0.307,-0.0922 -0.487,-0.415 -0.395,-0.7225l0.764,-2.603c0.092,-0.3074 0.415,-0.4867 0.722,-0.3945l0.974,0.2869c0.307,0.0923 0.487,0.4151 0.394,0.7225l-0.763,2.603c-0.092,0.3075 -0.415,0.4868 -0.722,0.3946zM115.095,77.4032c-0.23,-0.0666 -0.466,0.0666 -0.533,0.2921l-0.763,2.603c-0.067,0.2305 0.066,0.4662 0.292,0.5328l0.974,0.287c0.23,0.0666 0.466,-0.0666 0.532,-0.2921l0.764,-2.603c0.066,-0.2305 -0.067,-0.4663 -0.292,-0.5329z" fill="#1d2844"></path><path d="M141.755,88.1841l-23.129,-6.7739c-0.139,-0.041 -0.221,-0.1896 -0.18,-0.3279c0.041,-0.1384 0.19,-0.2204 0.328,-0.1794l23.13,6.7739c0.138,0.041 0.22,0.1896 0.179,0.328c-0.041,0.1383 -0.189,0.2203 -0.328,0.1793z" fill="#fdf7f4"></path><path d="M75.7532,71.1161l31.9328,-0.4509l4.945,1.4501l-24.3753,4.3297l-11.8467,-3.7046c-0.9223,-0.2716 -1.2502,-1.0453 -0.6507,-1.6243z" fill="#f4d3c1"></path><g fill="#fdf7f4" style="mix-blend-mode: multiply"><path d="M91.2482,75.9633l-1.8242,-0.7891l0.1845,-0.6405l0.041,-0.0051l15.3255,-1.8703l1.558,0.4509l-0.036,0.1128l-1.542,-0.4509l-15.2543,1.8651l-0.1383,0.4714l1.7319,0.7481z" style="mix-blend-mode: normal"></path></g><path d="M78.3613,69.9017l29.2017,0.6302l7.235,-1.8139l0.625,0.0922l-7.732,1.8498l-31.9327,0.4509c0.6353,-0.7891 1.5987,-1.2349 2.6081,-1.2144z" fill="#ffffff"></path><path d="M107.686,70.6651l6.789,-1.7626c0.374,-0.1384 0.784,-0.1538 1.163,-0.041l0.615,0.1793c0.267,0.0769 0.349,0.4304 0.139,0.6251l-3.756,2.4442l-4.945,-1.4501z" fill="#f4d3c1"></path><path d="M78.4279,75.123c-0.2613,-0.0769 -0.4253,-0.2972 -0.3638,-0.4868l1.3374,-4.0992c0.0615,-0.1896 0.3279,-0.2818 0.5841,-0.205c0.2613,0.0769 0.4253,0.2972 0.3638,0.4868l-1.3374,4.0992c-0.0615,0.1896 -0.3279,0.2818 -0.5841,0.205z" fill="#1d2844"></path><path d="M82.9883,76.7627l-4.5604,-1.6397l1.5628,-4.7858l4.7243,1.1324z" fill="#fdf7f4"></path><path d="M92.7648,78.0385c-0.2613,-0.0769 -0.4252,-0.2972 -0.3638,-0.4868l0.5227,-1.5987c0.0615,-0.1896 0.3279,-0.2818 0.5841,-0.2049c0.2614,0.0768 0.4253,0.2972 0.3638,0.4867l-0.5226,1.5987c-0.0615,0.1896 -0.328,0.2818 -0.5842,0.205z" fill="#1d2844"></path><path d="M87.8202,77.5773l4.9395,0.4663l0.7533,-2.2955l-4.3401,-2.3161z" fill="#fdf7f4"></path><path d="M87.7126,77.8951c-0.2613,-0.0769 -0.4253,-0.2972 -0.3638,-0.4868l1.3373,-4.0992c0.0615,-0.1896 0.328,-0.2818 0.5842,-0.205c0.2613,0.0769 0.4253,0.2972 0.3638,0.4868l-1.3374,4.0992c-0.0615,0.1896 -0.3279,0.2818 -0.5841,0.205z" fill="#1d2844"></path><path d="M82.9883,76.7627l4.7243,1.1324l1.5628,-4.7858l-4.5604,-1.6397z" fill="#fdf7f4"></path><path d="M84.715,71.4696l-1.7267,5.2931l0.3843,0.0922l1.7626,-5.2623z" fill="#1d2844"></path><g fill="#fdf7f4" style="mix-blend-mode: multiply"><path d="M118.002,76.9108l-2.541,8.6794l0.108,0.0317l2.541,-8.6795z" style="mix-blend-mode: normal"></path></g><g fill="#fdf7f4" style="mix-blend-mode: multiply"><path d="M101.369,72.0344l-2.8048,9.5794l0.1082,0.0316l2.8046,-9.5793z" style="mix-blend-mode: normal"></path></g><g fill="#fdf7f4" style="mix-blend-mode: multiply"><path d="M83.0459,66.6678l-2.8049,9.5794l0.1082,0.0317l2.8048,-9.5794z" style="mix-blend-mode: normal"></path></g><g fill="#fdf7f4" style="mix-blend-mode: multiply"><path d="M64.7523,61.4776l-2.6969,9.2105l0.1082,0.0317l2.6969,-9.2106z" style="mix-blend-mode: normal"></path></g><g fill="#fdf7f4" style="mix-blend-mode: multiply"><path d="M74.6689,64.2112l-2.8049,9.5793l0.1082,0.0317l2.8048,-9.5794z" style="mix-blend-mode: normal"></path></g><g fill="#fdf7f4" style="mix-blend-mode: multiply"><path d="M111.17,74.9059l-2.805,9.5793l0.108,0.0317l2.805,-9.5794z" style="mix-blend-mode: normal"></path></g><g fill="#fdf7f4" style="mix-blend-mode: multiply"><path d="M122.86,78.8026l-2.04,6.9682l0.108,0.0316l2.04,-6.9681z" style="mix-blend-mode: normal"></path></g><g fill="#fdf7f4" style="mix-blend-mode: multiply"><path d="M61.7248,61.3496l-2.2966,7.8435l0.1082,0.0317l2.2966,-7.8435z" style="mix-blend-mode: normal"></path></g><path d="M101.327,80.001c0,0 67.883,43.462 120.071,3.9711c0,0 -20.788,12.2207 -42.729,14.1166c-1.676,0.1435 -3.331,-0.2408 -4.832,-0.9992c-0.748,-0.3792 -2.383,-0.7225 -5.749,-0.8249c0,0 -12.626,0.7839 -22.059,-0.3587c-2.87,-0.3485 -5.426,-1.9933 -6.882,-4.4835c-0.246,-0.4202 -0.799,-0.825 -1.844,-1.1478c-3.992,-1.2246 -8.322,1.4142 -35.976,-10.2736z" fill="#fdf7f4"></path><path d="M16.7862,133.788h157.0098v-15.69l-42.77,6.333c-6.769,1.005 -13.645,1.092 -20.44,0.267l-10.202,-1.24c-4.2014,-0.513 -8.4544,-0.308 -12.5843,0.599c-5.6467,1.24 -11.5085,1.158 -17.1193,-0.236l-24.7387,-6.153c-5.8721,-1.461 -11.8928,-2.199 -17.9442,-2.199h-11.2113v18.314z" fill="#fdf7f4"></path></g></g></g></g></svg>