<svg version="1.1" xmlns="http://www.w3.org/2000/svg" xmlns:xlink="http://www.w3.org/1999/xlink" width="68.231" height="40.86" viewBox="0,0,256,153.30209"><defs><clipPath id="clip-1"><rect x="0" y="0" width="68.232" height="40.86" id="clip-path" fill="none"></rect></clipPath></defs><g fill="none" fill-rule="nonzero" stroke="none" stroke-width="1" stroke-linecap="butt" stroke-linejoin="miter" stroke-miterlimit="10" stroke-dasharray="" stroke-dashoffset="0" font-family="none" font-weight="none" font-size="none" text-anchor="none" style="mix-blend-mode: normal"><g transform="translate(-0.00188,-0.0015) scale(3.75196,3.75196)"><g clip-path="url(#clip-1)" id="Group_221286"><path d="M48.481,16.679l0.422,1c3.07426,-1.29793 6.54807,-1.26862 9.6,0.081c2.45026,1.05801 4.46948,2.91543 5.728,5.269c3.19773,5.84179 1.05429,13.16977 -4.7875,16.3675c-5.84179,3.19773 -13.16977,1.05429 -16.3675,-4.7875c-0.99365,-1.78502 -1.51028,-3.79608 -1.5,-5.839c0.0121,-2.05484 0.53587,-4.0743 1.524,-5.876c-0.849,0.09 -1.613,0.143 -2.364,0.271c-0.183,0.031 -0.379,0.281 -0.474,0.476c-1,2.07 -2.008,4.141 -2.973,6.23c-0.57129,1.29501 -1.6411,2.3046 -2.967,2.8c-1.95,0.771 -3.882,1.588 -5.811,2.411c-0.66922,0.41267 -1.53135,0.3293 -2.10909,-0.20397c-0.57774,-0.53326 -0.72977,-1.38596 -0.37191,-2.08603c0.82,-2.413 1.615,-4.834 2.417,-7.253c0.055,-0.166 0.1,-0.337 0.181,-0.632c-0.9,0.37 -1.718,0.659 -2.494,1.035c-3.29208,1.51691 -6.88158,2.27882 -10.506,2.23c-1.038,0.012 -2.078,0.07 -3.111,0.163c-0.2667,0.04202 -0.49953,0.20374 -0.632,0.439c-0.57055,1.52963 -1.82858,2.70095 -3.395,3.161c-0.662,0.219 -1.294,0.529 -1.942,0.79c-0.57002,0.25987 -1.24039,0.15156 -1.69957,-0.2746c-0.45918,-0.42616 -0.61712,-1.0866 -0.40043,-1.6744c0.288,-0.9 0.591,-1.79 0.848,-2.565c-0.97905,-0.63707 -1.91753,-1.33442 -2.81,-2.088c-1.841,-1.749 -1.391,-3.9 0.938,-4.87l2.328,-0.97c-0.18,-0.251 -0.326,-0.462 -0.479,-0.669c-1.55867,-2.106 -3.11633,-4.21067 -4.673,-6.314c-0.53205,-0.55301 -0.73246,-1.3459 -0.52707,-2.0853c0.20539,-0.7394 0.78603,-1.31533 1.52707,-1.5147c0.79,-0.332 1.586,-0.65 2.371,-0.993c1.65298,-0.80711 3.63203,-0.51553 4.982,0.734c2.417,2 4.858,3.978 7.281,5.975c0.22578,0.25507 0.59412,0.32792 0.9,0.178c3.847,-1.613 7.705,-3.2 11.559,-4.8c0.11015,-0.05604 0.21729,-0.11779 0.321,-0.185c-1.335,-0.67 -2.607,-1.311 -3.882,-1.947c-1.562,-0.781 -3.113,-1.562 -4.673,-2.326c-0.70086,-0.25542 -1.15889,-0.93153 -1.13618,-1.67714c0.02272,-0.74561 0.52106,-1.39258 1.23618,-1.60486c2.042,-0.836 4.08067,-1.685 6.116,-2.547c1.19515,-0.51477 2.54379,-0.54382 3.76,-0.081c3.973,1.411 7.955,2.8 11.924,4.221c0.41559,0.16141 0.87934,0.14441 1.282,-0.047c2.994,-1.256 5.985,-2.523 9,-3.722c3.48403,-1.48176 7.48483,-1.07092 10.595,1.088c0.21701,0.14241 0.47255,0.21467 0.732,0.207c1.87425,-0.20803 3.62333,0.97214 4.132,2.788c0.50521,1.84705 -0.45058,3.78011 -2.225,4.5c-2.155,0.924 -4.33,1.8 -6.5,2.7l-10.894,4.518M61.113,3.217c-2.48994,-1.26991 -5.41969,-1.34963 -7.975,-0.217c-15.288,6.34467 -30.57933,12.682 -45.874,19.012c-1.08333,0.44867 -2.167,0.897 -3.251,1.345c-0.432,0.179 -0.642,0.483 -0.318,0.892c0.6053,0.77136 1.41504,1.35727 2.337,1.691c0.10817,-0.24238 0.19939,-0.49198 0.273,-0.747c0.21084,-1.04159 0.98501,-1.87863 2.007,-2.17c1.436,-0.535 2.842,-1.153 4.254,-1.75c0.57337,-0.38722 1.34279,-0.30232 1.81793,0.20061c0.47514,0.50293 0.51622,1.27593 0.09707,1.82639c-0.45,0.9 -0.868,1.822 -1.338,2.815c0.976,-0.045 1.849,-0.1 2.722,-0.123c2.92022,0.03249 5.81645,-0.53029 8.512,-1.654c1.394,-0.637 2.814,-1.223 4.249,-1.761c0.66037,-0.17047 1.16293,-0.70692 1.29,-1.377c0.18897,-0.95628 0.89508,-1.72756 1.831,-2c0.552,-0.195 1.085,-0.444 1.626,-0.668c3.75133,-1.55467 7.50067,-3.10933 11.248,-4.664c0.87709,-0.50047 1.98315,-0.3324 2.672,0.406c0.20924,0.29472 0.61351,0.37231 0.917,0.176c4.14133,-1.72867 8.28633,-3.44867 12.435,-5.16c1.458,-0.6 2.92,-1.2 4.368,-1.827c0.71086,-0.25645 1.13791,-0.9832 1.016,-1.729c-0.07181,-0.72802 -0.65047,-1.3025 -1.379,-1.369c-0.42501,-0.00496 -0.84604,0.08238 -1.234,0.256c-2.465,1 -4.917,2.037 -7.379,3.047c-0.36771,0.20895 -0.82314,0.1861 -1.16809,-0.05859c-0.34495,-0.2447 -0.51703,-0.66698 -0.44136,-1.08308c0.07568,-0.4161 0.38543,-0.75076 0.79445,-0.85832c0.661,-0.289 1.333,-0.553 2,-0.83l3.889,-1.62M43.744,28.761c-0.02065,4.00921 2.37881,7.63505 6.07712,9.18317c3.69831,1.54812 7.96521,0.71284 10.80678,-2.11552c2.84157,-2.82836 3.69673,-7.09132 2.16586,-10.79681c-1.53087,-3.70548 -5.14549,-6.12181 -9.15475,-6.11984c-5.43951,0.01791 -9.85175,4.40963 -9.895,9.849M28.372,32.785c1.824,-0.757 3.5,-1.475 5.2,-2.149c0.78672,-0.30028 1.42005,-0.90371 1.758,-1.675c1.636,-3.466 3.294,-6.921 4.942,-10.381c0.081,-0.171 0.144,-0.35 0.254,-0.62c-0.2,0.067 -0.306,0.095 -0.4,0.135c-2.52,1.041 -5.045,2.072 -7.552,3.144c-0.28467,0.15119 -0.50206,0.40393 -0.609,0.708c-1.148,3.37 -2.267,6.75 -3.391,10.129c-0.062,0.186 -0.1,0.378 -0.2,0.71M39.9,6.139c-0.091,-0.0673 -0.1877,-0.12653 -0.289,-0.177c-3.381,-1.19 -6.748,-2.407 -10.146,-3.532c-0.62445,-0.16712 -1.28548,-0.13531 -1.891,0.091c-1.671,0.6 -3.3,1.338 -4.937,2.025c-0.14355,0.07181 -0.28279,0.15195 -0.417,0.24c2.631,1.312 5.233,2.51 7.731,3.9c1.09363,0.70258 2.48461,0.74828 3.622,0.119c2.038,-0.983 4.171,-1.768 6.323,-2.662M14.3,16.75c-0.029,-0.071 -0.033,-0.127 -0.064,-0.152c-2.354,-1.932 -4.685,-3.894 -7.088,-5.762c-0.50069,-0.33069 -1.11363,-0.44535 -1.7,-0.318c-1.11336,0.3553 -2.20405,0.77808 -3.266,1.266c1.862,2.513 3.669,4.959 5.5,7.391c0.14192,0.11461 0.33116,0.152 0.506,0.1c2.046,-0.827 4.082,-1.676 6.122,-2.519M45.759,15.769c-0.492,0.2 -0.89,0.354 -1.278,0.529c-0.323,0.146 -0.79,0.239 -0.924,0.5c-0.682,1.305 -1.276,2.656 -1.96,4.118c2.041,-0.365 3.922,-0.725 5.371,-2.233l-1.209,-2.91M6.957,30.139c1.408,-0.369 2.529,-0.926 2.984,-2.346c0.16444,-0.41959 0.35584,-0.82811 0.573,-1.223c0.378,-0.8 0.755,-1.6 1.219,-2.586c-0.49823,0.24236 -1.01282,0.44954 -1.54,0.62c-1.16847,0.22669 -2.06119,1.17499 -2.217,2.355c-0.233,1.062 -0.659,2.082 -1.019,3.18" id="Path_125972" fill="#2096b2"></path><path transform="translate(-207.768,-32.206)" d="M255.046,39.327c0.153,0.137 0.555,0.349 0.724,0.679c0.39168,0.80714 0.73822,1.63541 1.038,2.481c0.21717,0.54194 -0.03972,1.15797 -0.57758,1.38505c-0.53786,0.22708 -1.1585,-0.01845 -1.39542,-0.55205c-0.386,-0.859 -0.754,-1.729 -1.069,-2.616c-0.25,-0.705 0.285,-1.381 1.281,-1.378" id="Path_125973" fill="#2096b2"></path><path transform="translate(-131.958,-70.25)" d="M162.232,85.782c0.28463,0.00078 0.55658,0.11784 0.75277,0.32405c0.1962,0.20621 0.2996,0.48364 0.28623,0.76795c-0.00313,0.28484 -0.12014,0.55658 -0.32492,0.7546c-0.20478,0.19802 -0.48029,0.30583 -0.76508,0.2994c-0.59297,-0.02012 -1.05982,-0.5128 -1.048,-1.106c0.00517,-0.28471 0.12467,-0.55537 0.33159,-0.75101c0.20692,-0.19563 0.48385,-0.29979 0.76841,-0.28899" id="Path_125974" fill="#2096b2"></path><path transform="translate(-190.909,-45.815)" d="M234.164,58.1c-0.59068,-0.01957 -1.0566,-0.50908 -1.047,-1.1c-0.00244,-0.3878 0.20554,-0.74646 0.54333,-0.93697c0.33779,-0.19051 0.75231,-0.18294 1.08292,0.01978c0.33061,0.20272 0.52535,0.56873 0.50875,0.95619c-0.01356,0.59159 -0.49625,1.06453 -1.088,1.066" id="Path_125975" fill="#2096b2"></path><path transform="translate(-146.694,-64.152)" d="M180.175,80.483c-0.59226,-0.0217 -1.0582,-0.51343 -1.048,-1.106c0.00326,-0.28551 0.12211,-0.55752 0.3294,-0.75388c0.20729,-0.19636 0.48533,-0.30032 0.7706,-0.28812c0.28443,0.00027 0.55641,0.11669 0.75296,0.32229c0.19654,0.2056 0.30059,0.48256 0.28804,0.76671c-0.00395,0.28476 -0.12094,0.55627 -0.3252,0.75472c-0.20426,0.19845 -0.47904,0.30755 -0.7638,0.30328" id="Path_125976" fill="#2096b2"></path><path transform="translate(-117.217,-76.348)" d="M145.275,94.295c0.0032,0.28498 -0.10763,0.55942 -0.30783,0.76225c-0.2002,0.20283 -0.47317,0.31724 -0.75817,0.31775c-0.59287,-0.00706 -1.07114,-0.48711 -1.076,-1.08c-0.00109,-0.28488 0.11221,-0.55829 0.3145,-0.75888c0.20229,-0.2006 0.47663,-0.3116 0.7615,-0.30812c0.28446,-0.00522 0.5588,0.10556 0.75988,0.30683c0.20108,0.20127 0.3116,0.47571 0.30612,0.76017" id="Path_125977" fill="#2096b2"></path><path transform="translate(-176.178,-51.927)" d="M216.218,63.408c0.28451,0.0028 0.55585,0.12028 0.75256,0.32584c0.19671,0.20556 0.30215,0.4818 0.29244,0.76616c0.00077,0.38696 -0.20801,0.74401 -0.54563,0.93308c-0.33762,0.18908 -0.75114,0.18055 -1.08068,-0.02229c-0.32953,-0.20284 -0.52342,-0.5682 -0.50669,-0.95479c0.00174,-0.28458 0.11838,-0.55638 0.32343,-0.75372c0.20505,-0.19733 0.48113,-0.30346 0.76557,-0.29428" id="Path_125978" fill="#2096b2"></path><path transform="translate(-87.741,-88.547)" d="M108.21,108.124c0.57748,0.01212 1.04068,0.48117 1.04555,1.05876c0.00487,0.57759 -0.45036,1.05438 -1.02755,1.07624c-0.38877,0.01472 -0.7548,-0.18313 -0.95544,-0.51646c-0.20064,-0.33333 -0.20415,-0.74939 -0.00916,-1.08605c0.19499,-0.33666 0.55762,-0.54066 0.94659,-0.53249" id="Path_125979" fill="#2096b2"></path><path transform="translate(-161.442,-58.038)" d="M198.208,70.87c0.28449,-0.00359 0.55824,0.10852 0.75848,0.31065c0.20024,0.20212 0.30978,0.47691 0.30352,0.76135c-0.00221,0.58929 -0.48171,1.06521 -1.071,1.063c-0.58929,-0.00221 -1.06521,-0.48171 -1.063,-1.071c-0.00358,-0.28467 0.10848,-0.55861 0.31054,-0.75916c0.20206,-0.20055 0.47683,-0.31055 0.76146,-0.30484" id="Path_125980" fill="#2096b2"></path><path transform="translate(-102.488,-82.45)" d="M127.287,101.771c-0.00062,0.28485 -0.11694,0.55722 -0.32228,0.75464c-0.20534,0.19742 -0.48207,0.30294 -0.76672,0.29236c-0.59039,-0.01381 -1.05781,-0.50361 -1.044,-1.094c0.01381,-0.59039 0.50361,-1.05781 1.094,-1.044c0.28463,0.00078 0.55658,0.11784 0.75277,0.32405c0.1962,0.20621 0.2996,0.48364 0.28623,0.76795" id="Path_125981" fill="#2096b2"></path><path transform="translate(-237.687,-92.401)" d="M292.432,120.039c1.306,0 2.544,-0.012 3.783,0c0.31974,-0.02979 0.63654,0.08164 0.86723,0.30503c0.23069,0.22339 0.35225,0.53643 0.33277,0.85697c-0.03176,0.57164 -0.51483,1.01293 -1.087,0.993c-1.67067,0.01867 -3.34133,0.01867 -5.012,0c-0.28927,0.01663 -0.57178,-0.09153 -0.77599,-0.29708c-0.20421,-0.20555 -0.31052,-0.48877 -0.29201,-0.77792c-0.01867,-2.39333 -0.01867,-4.787 0,-7.181c-0.02035,-0.2984 0.08864,-0.59113 0.29917,-0.80357c0.21053,-0.21244 0.50226,-0.32407 0.80083,-0.30643c0.29861,0.00028 0.58323,0.12661 0.78375,0.34788c0.20052,0.22127 0.2983,0.51692 0.26925,0.81412c0.014,1.852 0.005,3.7 0.007,5.555c0,0.133 0.011,0.266 0.021,0.491" id="Path_125982" fill="#2096b2"></path></g></g></g></svg>