<svg version="1.1" xmlns="http://www.w3.org/2000/svg" xmlns:xlink="http://www.w3.org/1999/xlink" width="69" height="69" viewBox="0,0,256,256"><g fill="none" fill-rule="nonzero" stroke="none" stroke-width="1" stroke-linecap="butt" stroke-linejoin="miter" stroke-miterlimit="10" stroke-dasharray="" stroke-dashoffset="0" font-family="none" font-weight="none" font-size="none" text-anchor="none" style="mix-blend-mode: normal"><g transform="scale(3.71014,3.71014)"><g transform="translate(-1100,-2361)" id="Group_222531"><g transform="translate(889,7)" id="Group_222516" fill="#ececec" stroke="none"><circle cx="245.5" cy="2388.5" r="34.5" id="Ellipse_1919"></circle></g><g transform="translate(294.131,2198.699)" id="Group_222528" fill="#13839d"><g transform="translate(831.007,180.301)" id="Group-16"><path transform="translate(-23.363,-9.43)" d="M26.048,19.6c-0.2492,-0.84174 -0.24363,-1.73842 0.016,-2.577h-1.234c-0.40092,0.05556 -0.80466,-0.08042 -1.09028,-0.36722c-0.28562,-0.28679 -0.41993,-0.69109 -0.36272,-1.09178v-1.342c-0.04338,-0.37358 0.08334,-0.74689 0.34518,-1.01686c0.26183,-0.26997 0.63109,-0.40806 1.00582,-0.37614c0.093,0 0.187,-0.011 0.249,-0.015c0,-0.72 0,-1.421 0,-2.122c-0.01159,-0.32427 0.10744,-0.63962 0.3304,-0.87536c0.22296,-0.23574 0.53119,-0.37215 0.8556,-0.37864c0.106,-0.007 0.214,-0.007 0.32,-0.007c5.352,0 10.704,0.002 16.056,0.006c0.28535,-0.00212 0.56846,0.0505 0.834,0.155c0.40028,0.16171 0.65761,0.55548 0.645,0.987c0.015,0.6 0.018,1.2 0.006,1.795c0.00912,0.34164 -0.12489,0.67155 -0.36966,0.91006c-0.24477,0.23851 -0.57805,0.36392 -0.91934,0.34594h-0.318v2.56c0.533,0.066 1.075,0.1 1.6,0.2c1.31027,0.24295 2.53118,0.83354 3.535,1.71c2.99502,2.5508 3.61026,6.93793 1.4324,10.21415c-2.17786,3.27622 -6.46115,4.40707 -9.9724,2.63285c-0.40862,-0.22055 -0.86566,-0.33601 -1.33,-0.336c-4.006,0.015 -8.012,-0.007 -12.018,0.022c-0.45669,0.00878 -0.89726,-0.16876 -1.22025,-0.49175c-0.32299,-0.32299 -0.50053,-0.76356 -0.49175,-1.22025c0.006,-0.267 0,-0.534 0,-0.8c-0.02348,-0.43778 0.13506,-0.86579 0.43808,-1.18263c0.30301,-0.31684 0.72353,-0.49431 1.16192,-0.49037c0.03347,-0.00043 0.06688,-0.00311 0.1,-0.008c-0.035,-0.436 -0.1,-0.865 -0.1,-1.294c0,-0.429 0.058,-0.859 0.093,-1.31c-0.10946,-0.00413 -0.21862,-0.01414 -0.327,-0.03c-0.69436,-0.08822 -1.24125,-0.63471 -1.33,-1.329c-0.06231,-0.49024 -0.06432,-0.98627 -0.006,-1.477c0.0814,-0.75483 0.70433,-1.3356 1.463,-1.364c0.199,-0.009 0.399,-0.019 0.603,-0.036zM35.475,24.009c0.02813,3.31757 2.39337,6.15438 5.65181,6.77862c3.25843,0.62424 6.50466,-1.13753 7.75694,-4.2098c1.25228,-3.07227 0.16266,-6.60137 -2.60368,-8.43288c-2.76634,-1.83151 -6.44074,-1.45651 -8.78007,0.89606c-1.30645,1.32392 -2.03435,3.11204 -2.024,4.972zM34.522,10.173h-8.009c-0.11721,-0.00626 -0.23475,-0.00124 -0.351,0.015c-0.24716,0.02122 -0.43321,0.23423 -0.421,0.482c0,0.577 -0.006,1.154 0,1.73c-0.0101,0.11445 0.03079,0.22753 0.11174,0.30906c0.08095,0.08153 0.19374,0.12322 0.30826,0.11394c0.181,0.006 0.362,0 0.545,0l15.89,0.033c0.551,0 0.676,-0.124 0.68,-0.678c0,-0.414 0,-0.833 0,-1.249c0,-0.626 -0.13,-0.757 -0.746,-0.757zM24.14,14.906v0.7c0,0.505 0.143,0.652 0.646,0.648c1.068,-0.007 2.135,-0.032 3.2,-0.031c4.348,0.00667 8.69567,0.017 13.043,0.031c0.5,0 0.654,-0.146 0.659,-0.641c0.005,-0.46 0,-0.919 0,-1.378c0,-0.5 -0.115,-0.611 -0.625,-0.611h-14.544c-0.6,0 -1.19,-0.043 -1.789,-0.049c-0.405,0 -0.581,0.187 -0.586,0.591c-0.006,0.248 -0.004,0.492 -0.004,0.74zM37.326,29.84c-0.085,-0.089 -0.131,-0.143 -0.183,-0.191c-0.65904,-0.61004 -1.19682,-1.33918 -1.585,-2.149c-0.07478,-0.19952 -0.2795,-0.31901 -0.49,-0.286c-2.60533,0.008 -5.21067,0.008 -7.816,0c-0.565,0 -1.13,-0.036 -1.7,-0.019c-0.23371,-0.00839 -0.45975,0.08402 -0.62066,0.25372c-0.1609,0.1697 -0.24115,0.40035 -0.22034,0.63328v0.737c0,0.761 0.275,1.035 1.045,1.035h11.21c0.107,0.002 0.208,-0.006 0.36,-0.014zM38.959,17.04c-0.052,0 -0.1,-0.009 -0.138,-0.009h-11.378c-0.21772,-0.0056 -0.42788,0.07996 -0.57978,0.23603c-0.1519,0.15607 -0.23173,0.36848 -0.22022,0.58597c-0.01738,0.3201 -0.01738,0.6409 0,0.961c-0.01104,0.22282 0.07435,0.43961 0.23438,0.59504c0.16003,0.15544 0.37922,0.23448 0.60162,0.21696c2.778,0 5.55567,-0.00233 8.333,-0.007c0.14929,-0.01841 0.28716,-0.0893 0.389,-0.2c0.442,-0.446 0.836,-0.944 1.307,-1.356c0.46378,-0.36775 0.9468,-0.71057 1.447,-1.027zM35.507,20.429h-0.281l-8.263,-0.031c-0.48,0 -0.962,-0.012 -1.441,0.013c-0.22185,0.00177 -0.43322,0.09469 -0.58452,0.25696c-0.1513,0.16227 -0.22922,0.37961 -0.21548,0.60104c0,0.267 0,0.533 0,0.8c-0.04534,0.27616 0.04557,0.5572 0.24405,0.75449c0.19848,0.19729 0.48007,0.28651 0.75595,0.23951c0.907,-0.006 1.814,-0.034 2.722,-0.036c1.986,-0.006 3.973,0 5.959,0h0.3zM34.634,23.829h-0.28c-2.392,0 -4.783,0.013 -7.174,-0.01c-0.22904,-0.0016 -0.44928,0.08814 -0.61199,0.24934c-0.16271,0.16121 -0.25448,0.38061 -0.25501,0.60966c0.01,0.245 0,0.491 0,0.737c0,0.769 0.287,1.052 1.066,1.052h7.649z" id="Path_18540" stroke="#2096b2"></path><path transform="translate(-28.876,-13.035)" d="M50.67,24.612h-1.961c0.37608,0.29775 0.6159,0.73484 0.665,1.212h1.294v0.594h-1.283c-0.119,1.212 -1.081,1.984 -2.6,2.031c0.926,0.962 1.936,2.174 2.934,3.4h-1.14c-0.926,-1.117 -1.793,-2.15 -2.91,-3.338v-0.737h0.654c1.283,0 1.972,-0.535 2.055,-1.354h-2.71v-0.594h2.673c-0.166,-0.689 -0.8,-1.035 -1.829,-1.035h-0.844v-0.772h5z" id="Path_18541" stroke="none"></path></g><path transform="translate(818.574,160.645)" d="M36.572,43.53l-0.015,0.007l-5.765,2.8c0.06189,0.32957 0.08871,0.66478 0.08,1c-0.00376,0.34117 -0.27884,0.61714 -0.62,0.622h-0.018l-8.434,-0.236c-0.34563,-0.01932 -0.61325,-0.30996 -0.60405,-0.65601c0.0092,-0.34605 0.29188,-0.62206 0.63805,-0.62299l7.758,0.22c-0.23431,-1.52897 -1.51941,-2.67738 -3.065,-2.739l-5.133,-0.146c-1.01619,-0.03067 -2.01163,-0.29518 -2.909,-0.773l-0.522,-0.279c-2.5584,-1.37658 -5.6738,-1.19598 -8.056,0.467l-0.207,7.687l0.882,-0.486c0.87218,-0.48464 1.90189,-0.60057 2.86,-0.322l8.712,2.517c1.68031,0.35367 3.43002,0.15224 4.986,-0.574l12.066,-8.036c-0.67762,-0.72393 -1.75447,-0.9079 -2.634,-0.45z" id="Path" stroke="none"></path><path transform="translate(822.828,161.318)" d="M0.041,51.543l0.314,-11.437l4.516,0.124l-0.314,11.438z" id="Path-2" stroke="none"></path></g></g></g></g></svg>