<svg version="1.1" xmlns="http://www.w3.org/2000/svg" xmlns:xlink="http://www.w3.org/1999/xlink" width="122.88px" height="98.48px" viewBox="0,0,256,205.16667"><g fill="#2096b2" fill-rule="nonzero" stroke="none" stroke-width="1" stroke-linecap="butt" stroke-linejoin="miter" stroke-miterlimit="10" stroke-dasharray="" stroke-dashoffset="0" font-family="none" font-weight="none" font-size="none" text-anchor="none" style="mix-blend-mode: normal"><g transform="translate(0.01042,-0.01041) scale(2.08333,2.08333)"><g><path d="M69.64,7.8c0.19,0 0.37,0.03 0.54,0.08c0.81,0.21 1.41,0.95 1.41,1.83v23.72l20.43,-20.43c0.69,-0.69 1.58,-1.02 2.48,-1.02c0.89,0 1.79,0.33 2.48,1.02l7.05,7.05c0.33,0.33 0.41,0.89 0.15,1.33c-0.82,1.3 -1.12,2.84 -0.95,4.32c0.18,1.43 0.82,2.84 1.94,3.96c1.1,1.12 2.5,1.76 3.96,1.94c1.46,0.18 2.96,-0.13 4.27,-0.89c0.43,-0.28 1.02,-0.26 1.4,0.13l7.05,7.05c0.69,0.69 1.02,1.58 1.02,2.48c0,0.89 -0.33,1.79 -1.02,2.48l-50.26,50.26v3.49c0,1.04 -0.85,1.89 -1.89,1.89h-64.28c-1.49,0 -2.84,-0.61 -3.82,-1.59v0v0c-0.99,-0.99 -1.6,-2.35 -1.6,-3.84v-87.93c0,-0.31 0.07,-0.6 0.21,-0.86c0.27,-0.99 0.79,-1.87 1.49,-2.57c1.05,-1.05 2.5,-1.7 4.09,-1.7h63.85c1.04,0 1.89,0.85 1.89,1.89c0,1.04 -0.85,1.89 -1.89,1.89h-63.85c-0.55,0 -1.05,0.23 -1.42,0.59c-0.36,0.37 -0.59,0.87 -0.59,1.42c0,0.55 0.23,1.05 0.59,1.42c0.37,0.37 0.87,0.59 1.42,0.59h63.85zM71.59,36.55v11.06c0.27,0.05 0.58,0.12 0.94,0.21l1.74,-1.74l1.6,1.6l-0.74,0.74l1.91,0.45l1.95,-1.95l1.61,1.61l-0.95,0.95l2.43,0.56l4.09,-4.09c0.57,-0.57 1.67,-0.42 2.43,0.34v0c0.76,0.76 0.92,1.86 0.34,2.43l-4.09,4.09l0.56,2.41l0.94,-0.94l1.61,1.61l-1.94,1.94l0.44,1.91l0.73,-0.73l1.61,1.61l-1.73,1.73l0.01,0.04c0.83,3.64 0.09,2.5 -2.67,5.26l-4,-10.38l-3.96,3.96c0.27,1.92 0.39,3.46 -1.12,4.97v0v0l-1.69,-1.65c-0.13,-0.81 -0.19,-1.39 -0.26,-1.81c-0.25,-0.12 -0.5,-0.29 -0.72,-0.5v0c-0.19,-0.19 -0.35,-0.41 -0.46,-0.63c-0.17,-0.02 -0.38,-0.04 -0.61,-0.07v17.01l5.75,5.75l32.66,-32.67l-26.74,-26.75l-11.67,11.67zM71.59,52.13v6.04c0.65,-0.02 1.33,0.1 2.1,0.25l3.95,-3.95l-6.05,-2.34zM71.59,81.57v8.47l4.24,-4.24l-4.24,-4.23zM111.52,50.12l-26.75,-26.75l8.81,-8.81c0.26,-0.26 0.59,-0.38 0.95,-0.38c0.33,0 0.69,0.13 0.95,0.38l6.46,6.46c-0.74,1.56 -1.02,3.27 -0.82,4.96c0.74,6.16 7.28,9.61 12.77,7l6.46,6.46c0.26,0.26 0.38,0.59 0.38,0.95c0,0.33 -0.13,0.69 -0.38,0.95l-0.03,-0.03l-8.8,8.81zM51.94,51.78c0.06,0 0.12,0 0.17,0.01c0.38,-0.66 0.72,-1.36 1.04,-2.09c0.01,-0.01 0.01,-0.02 0.02,-0.04c0.47,-1.11 0.83,-2.27 1.06,-3.47c0.18,-0.93 0.31,-1.87 0.34,-2.85h-5.61c-0.1,2.85 -0.95,5.66 -2.53,8.42h5.5v0.02zM50.96,53.57h-5.64c-1.71,2.49 -4.03,4.93 -6.92,7.36c0.45,-0.06 0.91,-0.13 1.35,-0.22c1.21,-0.24 2.38,-0.6 3.5,-1.09c1.14,-0.49 2.2,-1.06 3.2,-1.73c0.99,-0.66 1.9,-1.41 2.74,-2.25c0.65,-0.65 1.25,-1.33 1.79,-2.07h-0.02zM33.59,60.92c-2.89,-2.42 -5.2,-4.87 -6.92,-7.36h-5.64c0.54,0.73 1.14,1.42 1.79,2.07c0.85,0.84 1.75,1.59 2.74,2.25c0.98,0.66 2.04,1.24 3.2,1.73c0.01,0.01 0.02,0.01 0.04,0.02c1.11,0.47 2.27,0.83 3.47,1.07c0.44,0.09 0.89,0.16 1.35,0.22h-0.03zM19.85,51.78h5.68c-1.58,-2.77 -2.44,-5.58 -2.53,-8.42h-5.61c0.05,0.98 0.16,1.92 0.34,2.85c0.24,1.21 0.6,2.38 1.09,3.5c0.31,0.72 0.65,1.41 1.03,2.07zM17.39,41.57h5.64c0.21,-2.79 1.14,-5.6 2.79,-8.42h-5.98c-0.38,0.66 -0.72,1.35 -1.03,2.07c-0.01,0.01 -0.01,0.02 -0.02,0.04c-0.47,1.11 -0.83,2.27 -1.06,3.47c-0.18,0.91 -0.3,1.86 -0.34,2.84zM21.02,31.35h5.96c1.7,-2.45 3.94,-4.91 6.73,-7.38c-0.5,0.06 -0.99,0.13 -1.47,0.23c-1.21,0.24 -2.38,0.6 -3.5,1.09c-1.14,0.49 -2.2,1.07 -3.2,1.73c-0.99,0.66 -1.9,1.41 -2.74,2.25c-0.65,0.65 -1.25,1.33 -1.79,2.07l0.01,0.01zM38.27,23.97c2.8,2.47 5.04,4.93 6.73,7.38h5.96c-0.54,-0.73 -1.14,-1.42 -1.79,-2.07c-0.85,-0.84 -1.75,-1.59 -2.74,-2.25c-0.98,-0.66 -2.04,-1.24 -3.2,-1.73c-0.01,-0.01 -0.02,-0.01 -0.04,-0.02c-1.11,-0.47 -2.27,-0.83 -3.47,-1.07c-0.49,-0.1 -0.98,-0.17 -1.47,-0.23v-0.01zM52.13,33.14h-5.98c1.65,2.83 2.58,5.63 2.79,8.42h5.64c-0.05,-0.98 -0.16,-1.92 -0.34,-2.85c-0.24,-1.21 -0.6,-2.38 -1.09,-3.5c-0.3,-0.72 -0.64,-1.41 -1.02,-2.07v0zM31.89,22.45c1.32,-0.27 2.69,-0.4 4.1,-0.4c1.41,0 2.77,0.13 4.1,0.4c1.31,0.26 2.57,0.65 3.81,1.18c0.01,0 0.04,0.01 0.05,0.02c1.22,0.53 2.39,1.16 3.48,1.89c1.09,0.72 2.09,1.56 3.01,2.47c0.93,0.92 1.75,1.92 2.47,3.01c0.73,1.09 1.36,2.25 1.89,3.48c0.54,1.25 0.93,2.53 1.2,3.86c0.27,1.32 0.4,2.69 0.4,4.1c0,1.41 -0.13,2.77 -0.4,4.1c-0.26,1.31 -0.65,2.57 -1.18,3.81c0,0.01 -0.01,0.04 -0.02,0.05c-0.53,1.24 -1.16,2.39 -1.89,3.48c-0.72,1.09 -1.56,2.09 -2.47,3.01c-0.92,0.93 -1.92,1.75 -3.01,2.47c-1.09,0.73 -2.25,1.36 -3.48,1.89c-1.25,0.54 -2.53,0.93 -3.86,1.2c-1.32,0.27 -2.69,0.4 -4.1,0.4c-1.41,0 -2.77,-0.13 -4.1,-0.4c-1.31,-0.26 -2.57,-0.65 -3.81,-1.18c-0.01,0 -0.04,-0.01 -0.05,-0.02c-1.22,-0.53 -2.39,-1.16 -3.48,-1.89c-1.09,-0.72 -2.09,-1.56 -3.01,-2.47c-0.93,-0.92 -1.75,-1.92 -2.47,-3.01c-0.73,-1.09 -1.36,-2.25 -1.89,-3.48c-0.54,-1.25 -0.93,-2.53 -1.2,-3.86c-0.27,-1.32 -0.4,-2.69 -0.4,-4.1c0,-1.41 0.13,-2.77 0.4,-4.1c0.26,-1.31 0.65,-2.57 1.18,-3.81c0,-0.01 0.01,-0.04 0.02,-0.05c0.53,-1.24 1.16,-2.39 1.89,-3.48c0.72,-1.09 1.55,-2.09 2.47,-3.01c0.92,-0.93 1.92,-1.75 3.01,-2.47c1.09,-0.73 2.25,-1.36 3.48,-1.89c1.25,-0.54 2.54,-0.93 3.86,-1.2zM36.88,25.13v6.22h5.93c-1.56,-2.05 -3.53,-4.12 -5.93,-6.22zM36.88,33.14v8.42h10.27c-0.23,-2.77 -1.26,-5.57 -3.1,-8.42h-7.17zM36.88,43.35v8.42h7.48c1.78,-2.79 2.72,-5.6 2.83,-8.42h-10.31zM36.88,53.57v6.29c2.53,-2.08 4.62,-4.19 6.23,-6.29h-6.23zM35.1,59.86v-6.29h-6.23c1.6,2.1 3.68,4.21 6.23,6.29zM35.1,51.78v-8.42h-10.31c0.11,2.83 1.06,5.63 2.83,8.42h7.48zM35.1,41.57v-8.42h-7.18c-1.84,2.85 -2.87,5.66 -3.1,8.42h10.28zM35.1,31.35v-6.22c-2.4,2.09 -4.37,4.16 -5.93,6.22h5.93zM22.59,85.62c-1.04,0 -1.89,-0.85 -1.89,-1.89c0,-1.04 0.85,-1.89 1.89,-1.89h26.35c1.04,0 1.89,0.85 1.89,1.89c0,1.04 -0.85,1.89 -1.89,1.89h-26.35zM14.9,75.72c-1.04,0 -1.89,-0.85 -1.89,-1.89c0,-1.04 0.85,-1.89 1.89,-1.89h41.74c1.04,0 1.89,0.85 1.89,1.89c0,1.04 -0.85,1.89 -1.89,1.89h-41.74zM67.81,11.58h-62.02c-0.71,0 -1.39,-0.13 -2.01,-0.36v81.84c0,0.45 0.19,0.86 0.48,1.16v0c0.3,0.3 0.71,0.48 1.16,0.48h62.39v-83.12z"></path></g></g></g></svg>