<svg version="1.1" xmlns="http://www.w3.org/2000/svg" xmlns:xlink="http://www.w3.org/1999/xlink" width="256" height="256" viewBox="0,0,256,256"><g fill="#2096b2" fill-rule="nonzero" stroke="none" stroke-width="1" stroke-linecap="round" stroke-linejoin="miter" stroke-miterlimit="10" stroke-dasharray="" stroke-dashoffset="0" font-family="none" font-weight="none" font-size="none" text-anchor="none" style="mix-blend-mode: normal"><g transform="translate(0.14341,0.14341)"><g transform="translate(1.40659,1.40659) scale(2.81,2.81)"><path d="M45,90c-24.813,0 -45,-20.187 -45,-45c0,-24.813 20.187,-45 45,-45c24.813,0 45,20.187 45,45c0,24.813 -20.187,45 -45,45zM45,7c-20.953,0 -38,17.047 -38,38c0,20.953 17.047,38 38,38c20.953,0 38,-17.047 38,-38c0,-20.953 -17.047,-38 -38,-38z"></path><path d="M42.245,62.755c-1.021,0 -1.992,-0.445 -2.657,-1.222l-17.467,-20.374c-1.258,-1.468 -1.088,-3.678 0.379,-4.936c1.466,-1.258 3.677,-1.089 4.935,0.379l14.727,17.178l20.334,-25.231c1.215,-1.506 3.417,-1.741 4.922,-0.529c1.505,1.214 1.742,3.417 0.529,4.922l-22.977,28.509c-0.653,0.81 -1.632,1.287 -2.672,1.304c-0.018,0 -0.036,0 -0.053,0z"></path></g></g></g></svg>