<svg version="1.1" xmlns="http://www.w3.org/2000/svg" xmlns:xlink="http://www.w3.org/1999/xlink" width="40.181" height="40.19" viewBox="0,0,255.9375,256"><defs><clipPath id="clip-1"><rect x="0" y="0" width="40.181" height="40.191" id="clip-path" fill="none"></rect></clipPath></defs><g fill="none" fill-rule="nonzero" stroke="none" stroke-width="1" stroke-linecap="butt" stroke-linejoin="miter" stroke-miterlimit="10" stroke-dasharray="" stroke-dashoffset="0" font-family="none" font-weight="none" font-size="none" text-anchor="none" style="mix-blend-mode: normal"><g transform="translate(-0.00259,-0.00318) scale(6.36974,6.36974)"><g clip-path="url(#clip-1)" id="Group_216339"><path transform="translate(0,-56.261)" d="M0,79.65c0.19354,-0.54733 0.44391,-1.07286 0.747,-1.568c0.82951,-1.11546 2.28522,-1.56632 3.6,-1.115c0.074,0.022 0.15,0.034 0.26,0.058c-0.219,-0.672 -0.448,-1.315 -0.635,-1.969c-0.4679,-1.5944 -0.6706,-3.25486 -0.6,-4.915c0.16562,-2.81052 2.20413,-5.15661 4.964,-5.713c1.15802,-0.24863 2.36401,-0.14413 3.462,0.3c1.55263,0.6787 3.26566,0.90406 4.941,0.65c0.5,-0.082 0.99,-0.219 1.523,-0.339l0.465,1.291c-0.763,0.155 -1.479,0.341 -2.207,0.442c-1.78619,0.18968 -3.59114,-0.08376 -5.241,-0.794c-2.39694,-0.91254 -5.08995,0.19928 -6.145,2.537c-0.39901,0.9849 -0.5368,2.05618 -0.4,3.11c0.18204,2.39056 0.89465,4.71048 2.086,6.791c0.40782,0.78714 0.64788,1.65033 0.705,2.535c0.27,2.545 0.561,5.088 0.844,7.632c0.054,0.48 0.086,0.964 0.173,1.438c0.09208,0.61327 0.625,1.06294 1.24503,1.05053c0.62002,-0.01242 1.13452,-0.48306 1.20197,-1.09953c0.471,-2.79 0.93,-5.586 1.41,-8.376c0.15011,-1.12189 0.93923,-2.05392 2.021,-2.387c1.07455,-0.39126 2.27851,-0.12276 3.085,0.688c0.59093,0.61864 0.94682,1.42452 1.006,2.278c0.416,2.56267 0.84067,5.124 1.274,7.684c0.03551,0.50993 0.36656,0.95172 0.846,1.129c0.35462,0.13501 0.75186,0.09747 1.07491,-0.10157c0.32306,-0.19904 0.53521,-0.53697 0.57409,-0.91443c0.195,-1.634 0.371,-3.27 0.553,-4.906c0.186,-1.675 0.361,-3.35 0.563,-5.022c0.0273,-0.27334 0.12516,-0.53488 0.284,-0.759c0.58529,-0.83809 1.33775,-1.54595 2.21,-2.079c0.97675,-0.53002 2.1544,-0.53402 3.13473,-0.01064c0.98032,0.52338 1.63223,1.50414 1.73527,2.61064c0.034,0.35 0.054,0.7 0.054,1.055c0.00333,4.852 0.00333,9.704 0,14.556c0.00195,0.18243 -0.01616,0.36452 -0.054,0.543c-0.05449,0.28159 -0.29921,0.48622 -0.586,0.49c-0.133,0.013 -0.262,0.005 -0.392,0.005c-9.584,0 -19.16833,0.00267 -28.753,0.008c-0.39002,0.03831 -0.77418,-0.11625 -1.029,-0.414v-16.399M29.444,95.09v-6.729c0,-2.759 0,-5.519 -0.01,-8.278c0.02017,-0.75708 -0.43187,-1.44711 -1.134,-1.731c-0.68691,-0.35231 -1.51927,-0.24965 -2.1,0.259c-0.44617,0.38406 -0.86768,0.79588 -1.262,1.233c-0.11889,0.13692 -0.19442,0.30608 -0.217,0.486c-0.143,1.153 -0.266,2.309 -0.4,3.464c-0.232,2.076 -0.446,4.155 -0.7,6.229c-0.09004,1.34055 -1.19455,2.38717 -2.538,2.405c-1.3111,0.01307 -2.42983,-0.94541 -2.618,-2.243c-0.239,-1.3 -0.434,-2.6 -0.651,-3.9c-0.254,-1.518 -0.491,-3.04 -0.775,-4.552c-0.1421,-0.80923 -0.86107,-1.38842 -1.682,-1.355c-0.81556,0.0237 -1.49928,0.62347 -1.629,1.429c-0.171,0.95 -0.319,1.9 -0.478,2.856c-0.312,1.866 -0.612,3.734 -0.942,5.6c-0.20511,1.2508 -1.2875,2.16797 -2.555,2.165c-1.25634,0.02074 -2.33444,-0.89072 -2.523,-2.133c-0.26,-1.782 -0.428,-3.577 -0.633,-5.367c-0.178,-1.557 -0.347,-3.115 -0.531,-4.67c-0.01931,-0.15081 -0.08301,-0.29247 -0.183,-0.407c-0.34667,-0.37333 -0.70633,-0.73467 -1.079,-1.084c-0.45459,-0.47 -1.1108,-0.68712 -1.756,-0.581c-1.04971,0.14756 -1.80023,1.09099 -1.708,2.147c-0.00333,4.81267 -0.00333,9.62533 0,14.438c0,0.1 0.014,0.2 0.022,0.318z" id="Path_116646" fill="#2096b2"></path><path transform="translate(-140.324,0)" d="M171.475,0c0.316,0.06 0.636,0.109 0.949,0.184c3.796,0.70694 6.82307,3.57699 7.731,7.33c1.21582,4.6088 -0.98297,9.43622 -5.25805,11.54404c-4.27509,2.10782 -9.44328,0.91266 -12.35895,-2.85804c-2.51588,-3.08423 -2.88497,-7.39498 -0.93,-10.862c1.4658,-2.90981 4.29888,-4.88538 7.536,-5.255c0.09873,-0.02119 0.19595,-0.04892 0.291,-0.083zM179.142,10.362c0.14945,-4.14181 -2.64712,-7.81263 -6.67996,-8.76822c-4.03284,-0.95558 -8.1792,1.07011 -9.9041,4.83862c-1.7249,3.76851 -0.54812,8.23068 2.81088,10.65845c3.359,2.42777 7.96508,2.14524 11.00219,-0.67485c1.69058,-1.57023 2.68747,-3.7482 2.771,-6.054" id="Path_116647" fill="#2096b2"></path><path transform="translate(-42.177,-75.868)" d="M50.519,86.7l0.739,1.109c-1.31349,0.92989 -1.97501,2.53234 -1.7,4.118h-1.287c-0.34957,-2.03349 0.53148,-4.08208 2.248,-5.227" id="Path_116648" fill="#2096b2"></path><path transform="translate(-164.047,-23.375)" d="M196.854,30.745h3.074c0.753,0 0.952,0.2 0.954,0.952c0,1.164 0,2.32767 0,3.491c0,0.7 -0.217,0.907 -0.918,0.909l-2.98,0.008c-0.0444,0.0102 -0.08762,0.02495 -0.129,0.044v0.395c0,0.93 0,1.86 0,2.785c0,0.517 -0.219,0.78 -0.715,0.787c-1.30667,0.01867 -2.613,0.01867 -3.919,0c-0.482,-0.007 -0.705,-0.266 -0.71,-0.751c-0.008,-0.93 0,-1.86 0,-2.785v-0.48h-0.446c-0.93,0 -1.857,0 -2.785,0c-0.517,0 -0.78,-0.219 -0.787,-0.715c-0.01867,-1.30733 -0.01867,-2.61367 0,-3.919c0.007,-0.482 0.266,-0.706 0.751,-0.71c0.93,-0.008 1.857,0 2.785,0h0.482v-0.446c0,-0.93 0,-1.86 0,-2.785c0,-0.517 0.219,-0.78 0.715,-0.787c1.30667,-0.01867 2.613,-0.01867 3.919,0c0.482,0.007 0.706,0.266 0.71,0.751c0.008,0.93 0,1.86 0,2.785v0.482M195.515,28.118h-2.672v3.162c0,0.564 -0.25,0.806 -0.818,0.811c-0.51,0 -1.02,0 -1.528,0h-1.628v2.673h3.165c0.564,0 0.806,0.25 0.811,0.818c0,0.51 0,1.02 0,1.528v1.626h2.672v-3.166c0,-0.564 0.25,-0.806 0.818,-0.811c0.51,0 1.02,0 1.528,0h1.628v-2.672h-3.091c-0.664,0 -0.889,-0.227 -0.89,-0.9v-3.08" id="Path_116649" fill="#2096b2"></path></g></g></g></svg>