<svg version="1.1" xmlns="http://www.w3.org/2000/svg" xmlns:xlink="http://www.w3.org/1999/xlink" width="49" height="34" viewBox="0,0,256,177.625"><defs><clipPath id="clip-1"><rect x="0" y="0" width="49" height="33.4775" id="clip0_36_4614" fill="none" stroke="none" stroke-width="1" stroke-linecap="butt" stroke-linejoin="miter"></rect></clipPath></defs><g fill="none" fill-rule="nonzero" stroke="none" stroke-width="none" stroke-linecap="none" stroke-linejoin="none" stroke-miterlimit="10" stroke-dasharray="" stroke-dashoffset="0" font-family="none" font-weight="none" font-size="none" text-anchor="none" style="mix-blend-mode: normal"><g transform="translate(0,1.36107) scale(5.22449,5.22449)"><g clip-path="url(#clip-1)"><path d="M6.44262,22.9044v0.0361c0.24084,0.4697 0.73458,0.7466 1.25239,0.6985l6.94839,-0.7587c0.9634,-0.1084 1.9147,-0.3733 2.7938,-0.7948l26.8904,-12.78888c0,0 2.0833,-1.05972 3.2153,-2.66134c0.6262,-0.87909 -0.0241,-2.1074 -1.0959,-2.1074c-0.8429,0 -1.9147,-0.03613 -2.9262,-0.08429c-2.4928,-0.12043 -4.9735,0.37331 -7.2134,1.45711c-2.9262,1.42099 -6.2499,3.22733 -6.2499,3.22733l-17.5335,-7.75522c-0.5179,-0.22881 -1.12,-0.22881 -1.6378,0.02408l-3.28752,1.5655l12.49992,10.75371l-6.4547,3.2153l-7.62276,-2.6252c-0.55395,-0.1927 -1.15606,-0.1806 -1.71,0.0482l-3.13099,1.2524l6.04522,5.5515l-0.21677,0.1083c-0.61415,0.2891 -0.87908,1.0236 -0.57802,1.6378z" fill="none" stroke="#2096b2" stroke-width="2" stroke-linecap="round" stroke-linejoin="round"></path><path d="M19.7493,33.4775c4.3563,0 7.8877,-3.5314 7.8877,-7.8877c0,-4.3562 -3.5314,-7.8877 -7.8877,-7.8877c-4.3562,0 -7.8877,3.5315 -7.8877,7.8877c0,4.3563 3.5315,7.8877 7.8877,7.8877z" fill="#2096b2" stroke="none" stroke-width="1" stroke-linecap="butt" stroke-linejoin="miter"></path><path d="M23.2897,23.1816l-1.1319,-1.144l-2.4085,2.4085l-2.4084,-2.4085l-1.132,1.144l2.3964,2.4085l-2.3964,2.3964l1.132,1.144l2.4084,-2.3964l2.4085,2.3964l1.1319,-1.144l-2.3964,-2.3964z" fill="#ffffff" stroke="none" stroke-width="1" stroke-linecap="butt" stroke-linejoin="miter"></path></g></g></g></svg>