<svg version="1.1" xmlns="http://www.w3.org/2000/svg" xmlns:xlink="http://www.w3.org/1999/xlink" width="117.3px" height="122.88px" viewBox="0,0,244.375,256"><g fill="#2096b2" fill-rule="evenodd" stroke="none" stroke-width="1" stroke-linecap="butt" stroke-linejoin="miter" stroke-miterlimit="10" stroke-dasharray="" stroke-dashoffset="0" font-family="none" font-weight="none" font-size="none" text-anchor="none" style="mix-blend-mode: normal"><g transform="translate(-0.0132,0.00381) scale(2.08333,2.08333)"><path d="M117.3,122.82c-0.95378,-0.12185 -1.89221,-0.34305 -2.8,-0.66c-1.18276,-0.42067 -2.29528,-1.01739 -3.3,-1.77v0c-0.6362,-0.47989 -1.22853,-1.01532 -1.77,-1.6c-0.21,-0.23 -0.42,-0.46 -0.62,-0.7c-0.49603,0.54144 -1.03078,1.04611 -1.6,1.51v0c-0.96324,0.7804 -2.02586,1.42941 -3.16,1.93v0c-1.67456,0.74643 -3.48662,1.13473 -5.32,1.14c-0.9324,-0.00269 -1.86155,-0.11003 -2.77,-0.32c-0.90341,-0.21138 -1.77926,-0.52682 -2.61,-0.94v0c-0.99389,-0.49329 -1.91851,-1.1153 -2.75,-1.85c-0.45398,-0.41267 -0.88149,-0.85354 -1.28,-1.32c-0.23,0.28 -0.47,0.54 -0.71,0.79c-0.56075,0.59623 -1.17313,1.14169 -1.83,1.63c-0.85011,0.64599 -1.78568,1.17099 -2.78,1.56c-0.96058,0.36822 -1.97278,0.58415 -3,0.64c-1.0492,0.05913 -2.10129,-0.04204 -3.12,-0.3c-1.07331,-0.26746 -2.10587,-0.67779 -3.07,-1.22c-0.97366,-0.54158 -1.89145,-1.178 -2.74,-1.9c-0.54,-0.46 -1.09,-1 -1.63,-1.53c-0.44421,0.55192 -0.92889,1.07002 -1.45,1.55c-0.86015,0.79546 -1.82592,1.46847 -2.87,2c-0.7915,0.39421 -1.6229,0.70263 -2.48,0.92c-1.72299,0.43 -3.52054,0.46759 -5.26,0.11c-0.88216,-0.18301 -1.74091,-0.46479 -2.56,-0.84c-1.15222,-0.51309 -2.22617,-1.18642 -3.19,-2c-0.60824,-0.50205 -1.17353,-1.05396 -1.69,-1.65c-0.73409,1.04603 -1.62057,1.97633 -2.63,2.76c-1.06268,0.80027 -2.27745,1.37533 -3.57,1.69c-1.33695,0.31463 -2.72151,0.37232 -4.08,0.17v0c-1.32675,-0.06258 -2.63725,-0.31862 -3.89,-0.76c-1.18276,-0.42067 -2.29528,-1.01739 -3.3,-1.77v0c-0.63857,-0.47702 -1.23114,-1.01268 -1.77,-1.6c-0.21,-0.22 -0.42,-0.46 -0.62,-0.7c-0.49342,0.54401 -1.02837,1.04886 -1.6,1.51v0c-0.9652,0.78545 -2.03137,1.43793 -3.17,1.94v0c-0.84021,0.36527 -1.71446,0.64664 -2.61,0.84c-0.89084,0.19034 -1.79906,0.28753 -2.71,0.29c-0.9324,-0.00269 -1.86155,-0.11003 -2.77,-0.32c-0.90341,-0.21138 -1.77926,-0.52682 -2.61,-0.94v0c-0.99532,-0.49083 -1.92025,-1.11305 -2.75,-1.85c-0.46845,-0.38914 -0.9095,-0.81014 -1.32,-1.26c-0.23,0.27 -0.47,0.53 -0.71,0.78c-0.55949,0.58848 -1.17209,1.12409 -1.83,1.6c-0.86248,0.64923 -1.81172,1.17434 -2.82,1.56c-0.96175,0.36588 -1.97306,0.585 -3,0.65c-0.35639,0.02 -0.71361,0.02 -1.07,0c-0.32,0 -0.64,0 -1,-0.1c-0.62104,-0.02679 -1.11058,-0.53838 -1.11,-1.16v-2.91v0c-0.00977,-0.08305 -0.00977,-0.16695 0,-0.25c0.13949,-0.62861 0.7607,-1.02637 1.39,-0.89c0.24049,0.05353 0.48441,0.09028 0.73,0.11c0.23625,0.0198 0.47375,0.0198 0.71,0c0.52052,-0.03195 1.0331,-0.14323 1.52,-0.33c0.54408,-0.21483 1.05564,-0.50426 1.52,-0.86v0c0.65445,-0.4996 1.24549,-1.07721 1.76,-1.72c0.64066,-0.77565 1.21281,-1.60543 1.71,-2.48c0.11086,-0.2184 0.25604,-0.41759 0.43,-0.59l0.08,-0.08c0.61542,-0.57773 1.473,-0.82074 2.30001,-0.65176c0.82701,0.16898 1.52053,0.72893 1.85999,1.50176c0.40968,0.95648 0.97014,1.84104 1.66,2.62c0.61719,0.69345 1.36033,1.26353 2.19,1.68c0.47057,0.23236 0.96751,0.40696 1.48,0.52c0.52463,0.12134 1.06152,0.18174 1.6,0.18c0.54438,-0.0014 1.08719,-0.05836 1.62,-0.17c0.55311,-0.12213 1.0925,-0.29969 1.61,-0.53c0.97449,-0.42974 1.86497,-1.02903 2.63,-1.77c0.79655,-0.78829 1.45564,-1.70426 1.95,-2.71c0.11735,-0.26348 0.27602,-0.50654 0.47,-0.72v0c0.21186,-0.23295 0.46646,-0.42305 0.75,-0.56v0c1.2431,-0.59528 2.73472,-0.11708 3.4,1.09l0.07,0.12c0.39525,0.81636 0.86739,1.5932 1.41,2.32c0.47978,0.66187 1.05231,1.25124 1.7,1.75c0.5904,0.43272 1.24503,0.77015 1.94,1c0.7583,0.25966 1.54941,0.41115 2.35,0.45h0.22h0.24c0.71685,0.137 1.45315,0.137 2.17,0c0.59517,-0.1355 1.15656,-0.39068 1.65,-0.75h0.07c0.63979,-0.50024 1.19373,-1.10146 1.64,-1.78c0.58312,-0.91601 1.05955,-1.89571 1.42,-2.92c0.11964,-0.29031 0.28882,-0.55762 0.5,-0.79v0c0.18186,-0.20485 0.39439,-0.38027 0.63,-0.52l0.13,-0.07c0.62084,-0.31327 1.34157,-0.36372 2,-0.14v0c0.65574,0.21732 1.19639,0.68948 1.5,1.31c0.57073,1.15769 1.31236,2.22294 2.2,3.16c0.76578,0.80672 1.67446,1.4645 2.68,1.94c0.47366,0.21529 0.97015,0.37631 1.48,0.48c0.49237,0.10873 0.99584,0.15908 1.5,0.15c0.98943,-0.0273 1.96005,-0.27679 2.84,-0.73c0.85211,-0.43006 1.61545,-1.01699 2.25,-1.73c0.69195,-0.77223 1.26186,-1.64564 1.69,-2.59v-0.07c0.09642,-0.19234 0.21379,-0.37344 0.35,-0.54v0c0.12091,-0.14216 0.25483,-0.27272 0.4,-0.39l0.08,-0.07c0.55309,-0.40388 1.24191,-0.57609 1.92,-0.48c0.64672,0.09904 1.23233,0.43827 1.64,0.95l0.07,0.07c0.77166,1.05413 1.63502,2.03796 2.58,2.94c0.74229,0.71658 1.56825,1.34109 2.46,1.86h0.08c0.55502,0.31106 1.1461,0.55287 1.76,0.72v0c0.53499,0.1389 1.08789,0.19621 1.64,0.17c0.52377,-0.03187 1.03966,-0.14314 1.53,-0.33c0.54004,-0.22321 1.05054,-0.51205 1.52,-0.86v0c0.65445,-0.4996 1.24549,-1.07721 1.76,-1.72c0.63291,-0.7798 1.19198,-1.61673 1.67,-2.5c0.11596,-0.21523 0.26062,-0.41371 0.43,-0.59l0.08,-0.07c0.61402,-0.57832 1.47044,-0.82284 2.29725,-0.65589c0.82681,0.16695 1.52124,0.72462 1.86275,1.49589c0.40734,0.96074 0.96797,1.84896 1.66,2.63c0.61743,0.69058 1.36065,1.25733 2.19,1.67c0.47023,0.23553 0.96715,0.41348 1.48,0.53c0.52474,0.12073 1.06155,0.18112 1.6,0.18c0.54499,0 1.0883,-0.06037 1.62,-0.18c0.55404,-0.11406 1.09392,-0.28843 1.61,-0.52c0.97525,-0.43275 1.86577,-1.03546 2.63,-1.78c0.81261,-0.77072 1.48884,-1.67348 2,-2.67c0.11252,-0.2631 0.27176,-0.50365 0.47,-0.71v0c0.21614,-0.23085 0.46971,-0.42356 0.75,-0.57v0c1.24525,-0.60713 2.74778,-0.12685 3.41,1.09l0.06,0.11c0.39316,0.82064 0.86539,1.601 1.41,2.33c0.47644,0.6315 1.0385,1.19356 1.67,1.67c0.59126,0.43133 1.24566,0.76865 1.94,1c0.32682,0.11519 0.66088,0.20873 1,0.28v5.27zM34.37,97c-10.37,-8.24 -17.37,-21.71 -17.29,-40.88c-0.09422,-0.96466 0.51682,-1.85805 1.45,-2.12l12,-3.62v0v0v-11.8c0.02205,-8.88721 7.23277,-16.08003 16.12,-16.08h8v-18.62c-0.00367,-1.02942 0.40721,-2.01699 1.14,-2.74c0.73044,-0.73394 1.72454,-1.14454 2.76,-1.14h14c1.02853,0.0008 2.01444,0.41099 2.74,1.14l0.09,0.1c0.653,0.72321 1.00999,1.66565 1,2.64v18.62h13.26c2.39046,0.01005 4.67872,0.97068 6.36,2.67l0.12,0.12c1.62686,1.68615 2.53723,3.93698 2.54,6.28v18.89c3.94,1.16 7.88,2.25 11.82,3.18c0.87796,0.2097 1.51544,0.969 1.57,1.87c0.73338,8.78414 -0.89265,17.60476 -4.71,25.55c-2.04558,4.47621 -4.76739,8.61121 -8.07,12.26c0.26787,0.24725 0.48228,0.54674 0.63,0.88c0.41102,0.95881 0.97129,1.84647 1.66,2.63c0.61955,0.68828 1.36231,1.25467 2.19,1.67c0.47153,0.23247 0.96809,0.41029 1.48,0.53c0.52484,0.12013 1.06159,0.18052 1.6,0.18c0.5628,-0.00686 1.12302,-0.07731 1.67,-0.21c0.55201,-0.12164 1.09113,-0.29576 1.61,-0.52c0.97402,-0.43496 1.86418,-1.03742 2.63,-1.78c0.81304,-0.77033 1.48933,-1.67317 2,-2.67c0.11996,-0.25902 0.27842,-0.49839 0.47,-0.71v0c0.21718,-0.227 0.47065,-0.41626 0.75,-0.56v0c0.4231,-0.2021 0.89328,-0.28507 1.36,-0.24v7.68c-0.11,-0.12 -0.22,-0.25 -0.32,-0.38c-0.49332,0.54718 -1.02826,1.05537 -1.6,1.52v0c-0.96438,0.77878 -2.02678,1.42765 -3.16,1.93v0c-0.84282,0.36994 -1.72052,0.65469 -2.62,0.85c-0.88776,0.1873 -1.79269,0.28114 -2.7,0.28c-0.93209,0.00178 -1.86137,-0.10222 -2.77,-0.31c-0.90341,-0.21138 -1.77926,-0.52682 -2.61,-0.94v0c-0.9988,-0.4848 -1.92452,-1.10755 -2.75,-1.85c-0.47123,-0.39705 -0.90935,-0.83182 -1.31,-1.3c-0.23,0.27 -0.47,0.54 -0.71,0.79c-0.56797,0.58876 -1.17972,1.13365 -1.83,1.63c-0.86504,0.65052 -1.81351,1.18194 -2.82,1.58c-0.96086,0.36728 -1.97291,0.58318 -3,0.64c-1.04918,0.05819 -2.10113,-0.04295 -3.12,-0.3c-1.06954,-0.26933 -2.09854,-0.67959 -3.06,-1.22c-0.97747,-0.53933 -1.8958,-1.17949 -2.74,-1.91c-0.57022,-0.47704 -1.11434,-0.98444 -1.63,-1.52c-0.44421,0.55192 -0.92889,1.07002 -1.45,1.55c-0.86627,0.79243 -1.8349,1.46509 -2.88,2c-0.7915,0.39421 -1.6229,0.70263 -2.48,0.92c-1.71957,0.43019 -3.51392,0.46778 -5.25,0.11c-0.88216,-0.18301 -1.74091,-0.46479 -2.56,-0.84c-1.15535,-0.51298 -2.23262,-1.18627 -3.2,-2c-0.57352,-0.49134 -1.11153,-1.02267 -1.61,-1.59c-0.21719,0.31862 -0.45085,0.6257 -0.7,0.92c-0.57243,0.68365 -1.21982,1.30085 -1.93,1.84c-1.05793,0.80197 -2.26981,1.37727 -3.56,1.69c-1.33695,0.31463 -2.72151,0.37232 -4.08,0.17v0c-1.32277,-0.06851 -2.62913,-0.3244 -3.88,-0.76c-1.18682,-0.41848 -2.30296,-1.01533 -3.31,-1.77v0c-0.6319,-0.48506 -1.22381,-1.02012 -1.77,-1.6c-0.21,-0.23 -0.41,-0.46 -0.61,-0.7c-0.49588,0.54159 -1.03064,1.04627 -1.6,1.51v0c-0.99696,0.76547 -2.09375,1.39124 -3.26,1.86v0c-1.67538,0.74392 -3.4869,1.1321 -5.32,1.14c-0.93246,-0.00158 -1.86174,-0.10893 -2.77,-0.32c-0.90391,-0.20971 -1.77995,-0.52522 -2.61,-0.94v0c-0.99499,-0.49844 -1.91692,-1.131 -2.74,-1.88c-0.45895,-0.4075 -0.88681,-0.84873 -1.28,-1.32c-0.24,0.28 -0.47,0.54 -0.71,0.79c-0.56537,0.59145 -1.17734,1.13654 -1.83,1.63c-0.86375,0.64727 -1.8127,1.17222 -2.82,1.56c-0.96175,0.36588 -1.97306,0.585 -3,0.65c-1.06621,0.05525 -2.13469,-0.04924 -3.17,-0.31c-1.07273,-0.26928 -2.10505,-0.67952 -3.07,-1.22c-0.86471,-0.4827 -1.68462,-1.04158 -2.45,-1.67c-0.81877,-0.64801 -1.5907,-1.3531 -2.31,-2.11c-0.24022,-0.22842 -0.37125,-0.5487 -0.36,-0.88v-4.36c-0.00284,-0.4267 0.22684,-0.8211 0.59935,-1.02921c0.37252,-0.20811 0.82879,-0.19692 1.19065,0.02921c0.13547,0.08455 0.26269,0.18165 0.38,0.29v0c0.0967,0.07977 0.18394,0.17036 0.26,0.27l0.07,0.08c0.7754,1.07266 1.64195,2.07639 2.59,3c0.73962,0.71258 1.56218,1.3337 2.45,1.85h0.08c0.55621,0.32324 1.15088,0.57522 1.77,0.75v0c1.04358,0.28372 2.15041,0.22768 3.16,-0.16c0.54111,-0.21256 1.05211,-0.49495 1.52,-0.84v0c0.65445,-0.4996 1.24549,-1.07721 1.76,-1.72c0.63291,-0.7798 1.19198,-1.61673 1.67,-2.5c0.11721,-0.21401 0.26549,-0.40946 0.44,-0.58l0.07,-0.08c0.21737,-0.20377 0.46754,-0.36943 0.74,-0.49c0.63098,-0.27785 1.3467,-0.29265 1.98863,-0.04114c0.64193,0.25152 1.15709,0.7486 1.43137,1.38114c0.4137,0.95435 0.97377,1.83832 1.66,2.62c0.61444,0.67491 1.35064,1.2279 2.17,1.63c0.46968,0.23681 0.96676,0.41482 1.48,0.53c0.52484,0.12013 1.06159,0.18052 1.6,0.18c0.54767,-0.00162 1.09378,-0.05858 1.63,-0.17c0.55227,-0.12516 1.09137,-0.30263 1.61,-0.53c0.71653,-0.32689 1.38859,-0.74356 2,-1.24zM73.55,10h-16v12.5h16v-12.56zM59.6,41.68l4,-1.19c0.35091,-0.09061 0.71909,-0.09061 1.07,0l0.26,0.06l0.27,0.05l29.44,7.2v-16.23c-0.00201,-1.27145 -0.48832,-2.49438 -1.36,-3.42l-0.1,-0.09c-0.92968,-0.92739 -2.18688,-1.45182 -3.5,-1.46h-43c-6.62742,0 -12,5.37258 -12,12v9.17zM64.6,44.68l-3.81,0.93l-39.63,11.88c0.03373,4.34205 0.54005,8.66753 1.51,12.9l41.05,-8.63c0.28351,-0.06021 0.57649,-0.06021 0.86,0l42.24,8.86c1.03617,-4.37027 1.46354,-8.86275 1.27,-13.35c-7.21,-1.77 -14.4,-4 -21.59,-6.27c-7.19,-2.27 -14.6,-4.57 -21.87,-6.33z"></path></g></g></svg>