<svg version="1.1" xmlns="http://www.w3.org/2000/svg" xmlns:xlink="http://www.w3.org/1999/xlink" width="64.000000pt" height="64.000000pt" viewBox="0,0,256,256"><g fill="#2096b2" fill-rule="nonzero" stroke="none" stroke-width="1" stroke-linecap="butt" stroke-linejoin="miter" stroke-miterlimit="10" stroke-dasharray="" stroke-dashoffset="0" font-family="none" font-weight="none" font-size="none" text-anchor="none" style="mix-blend-mode: normal"><g transform="scale(4,4)"><g transform="translate(0,64) scale(0.1,-0.1)"><path d="M256,569c-47,-52 -59,-92 -30,-103c8,-3 24,-1 35,4c18,10 19,7 19,-74v-85l-35,15c-19,7 -51,14 -70,14c-35,0 -36,1 -21,22c17,24 6,58 -20,58c-25,0 -124,-91 -124,-115c0,-24 99,-115 124,-115c26,0 37,34 20,58c-15,21 -14,22 16,22c38,0 86,-24 100,-49c5,-11 10,-52 10,-91c0,-79 11,-110 40,-110c29,0 40,31 40,110c0,39 5,80 10,91c14,25 62,49 100,49c30,0 31,-1 16,-22c-17,-23 -6,-58 18,-58c26,0 126,91 126,114c0,25 -98,116 -124,116c-26,0 -37,-34 -20,-58c15,-21 14,-22 -21,-22c-19,0 -51,-7 -70,-14l-35,-15v85c0,81 1,84 19,74c27,-14 51,-2 51,25c0,28 -85,125 -110,125c-10,0 -39,-23 -64,-51z"></path></g></g></g></svg>