<svg version="1.1" xmlns="http://www.w3.org/2000/svg" xmlns:xlink="http://www.w3.org/1999/xlink" width="41" height="42" viewBox="0,0,249.89584,256"><g fill="none" fill-rule="nonzero" stroke="none" stroke-width="none" stroke-linecap="none" stroke-linejoin="none" stroke-miterlimit="10" stroke-dasharray="" stroke-dashoffset="0" font-family="none" font-weight="none" font-size="none" text-anchor="none" style="mix-blend-mode: normal"><g transform="translate(3.00964,0.49768) scale(6.09524,6.09524)"><path d="M35.1618,26.9771v3.4621c0,3.8256 -3.5546,8.6555 -8.8864,8.6555h-3.5546" fill="none" stroke="#2d6996" stroke-width="2" stroke-linecap="round" stroke-linejoin="round"></path><path d="M20.9325,40.8367h-1.7773c-0.9873,0 -1.7772,-0.7801 -1.7772,-1.7311c0,-0.9617 0.8008,-1.7311 1.7772,-1.7311h1.7773c0.9874,0 1.7773,0.7801 1.7773,1.7311c0,0.9617 -0.8008,1.7311 -1.7773,1.7311z" fill="none" stroke="#2d6996" stroke-width="2" stroke-linecap="round" stroke-linejoin="round"></path><path d="M6.70325,14.8595v-1.7311c0,-6.70002 5.57325,-12.1284 12.45195,-12.1284h1.7773c6.8788,0 12.452,5.42838 12.452,12.1284v1.7311" fill="none" stroke="#2d6996" stroke-width="2" stroke-linecap="round" stroke-linejoin="round"></path><path d="M4.35546,14.667h4.35546v14.8425h-4.35546c-2.40263,0 -4.35546,-1.902 -4.35546,-4.2422v-6.3581c0,-2.3401 1.95283,-4.2422 4.35546,-4.2422z" fill="#2096b2" stroke="none" stroke-width="1" stroke-linecap="butt" stroke-linejoin="miter"></path><path d="M35.6555,29.5098h-4.3554v-14.8426h4.3554c2.4027,0 4.3555,1.9021 4.3555,4.2423v6.358c0,2.3402 -1.9528,4.2423 -4.3555,4.2423z" fill="#2096b2" stroke="none" stroke-width="1" stroke-linecap="butt" stroke-linejoin="miter"></path></g></g></svg>