<svg version="1.1" xmlns="http://www.w3.org/2000/svg" xmlns:xlink="http://www.w3.org/1999/xlink" width="37" height="42" viewBox="0,0,225.52084,256"><g fill="none" fill-rule="none" stroke="none" stroke-width="none" stroke-linecap="none" stroke-linejoin="none" stroke-miterlimit="10" stroke-dasharray="" stroke-dashoffset="0" font-family="none" font-weight="none" font-size="none" text-anchor="none" style="mix-blend-mode: normal"><g transform="translate(0.62336,1.42086) scale(6.09524,6.09524)"><g id="Group 9"><path d="M5.36007,34.9221v-31.78352c0,-1.1808 0.9576,-2.1384 2.1384,-2.1384h26.15853c1.1808,0 2.1384,0.9576 2.1384,2.1384v31.59182c0,3.2049 -2.5983,5.8032 -5.8032,5.8032c0,0 -22.89963,-0.072 -23.50893,-0.081c-3.0357,-0.045 -5.4837,-2.493 -5.4837,-5.5287v-0.0018c0,0.1215 16.35033,0.0558 23.84643,0.0189c1.7676,-0.0081 3.2472,1.2267 3.6864,2.9394c0.2574,1.0026 0.8604,1.9962 2.1618,2.5002" id="Stroke 1" fill="none" fill-rule="nonzero" stroke="#1d568c" stroke-width="1.8" stroke-linecap="round" stroke-linejoin="round"></path><path d="M28.9253,12.401h-18.0441c-0.4995,0 -0.90539,-0.405 -0.90539,-0.9054c0,-0.4995 0.40589,-0.9054 0.90539,-0.9054h18.0441c0.5004,0 0.9054,0.4059 0.9054,0.9054c0,0.5004 -0.405,0.9054 -0.9054,0.9054z" id="Fill 3" fill="#2096b2" fill-rule="evenodd" stroke="none" stroke-width="1" stroke-linecap="butt" stroke-linejoin="miter"></path><path d="M28.9253,18.8882h-18.0441c-0.4995,0 -0.90539,-0.4059 -0.90539,-0.9054c0,-0.5004 0.40589,-0.9054 0.90539,-0.9054h18.0441c0.5004,0 0.9054,0.405 0.9054,0.9054c0,0.4995 -0.405,0.9054 -0.9054,0.9054z" id="Fill 5" fill="#2096b2" fill-rule="evenodd" stroke="none" stroke-width="1" stroke-linecap="butt" stroke-linejoin="miter"></path><path d="M19.3154,25.375h-8.5959c-0.4995,0 -0.90541,-0.405 -0.90541,-0.9054c0,-0.5004 0.40591,-0.9054 0.90541,-0.9054h8.5959c0.5004,0 0.9054,0.405 0.9054,0.9054c0,0.5004 -0.405,0.9054 -0.9054,0.9054z" id="Fill 7" fill="#2096b2" fill-rule="evenodd" stroke="none" stroke-width="1" stroke-linecap="butt" stroke-linejoin="miter"></path></g></g></g></svg>