<svg version="1.1" xmlns="http://www.w3.org/2000/svg" xmlns:xlink="http://www.w3.org/1999/xlink" width="360.000000pt" height="360.000000pt" viewBox="0,0,256,256"><g fill="#2096b2" fill-rule="nonzero" stroke="none" stroke-width="1" stroke-linecap="butt" stroke-linejoin="miter" stroke-miterlimit="10" stroke-dasharray="" stroke-dashoffset="0" font-family="none" font-weight="none" font-size="none" text-anchor="none" style="mix-blend-mode: normal"><g transform="translate(4.50443,-0.13522) scale(0.71111,0.71111)"><g transform="translate(0,360) scale(0.1,-0.1)"><path d="M1595,2750c-217,-53 -383,-203 -463,-418c-22,-59 -25,-85 -27,-217c-1,-86 -8,-163 -14,-180c-7,-16 -38,-57 -70,-90c-59,-61 -83,-99 -94,-146c-8,-33 13,-54 79,-78l49,-17l3,-61c3,-54 6,-61 29,-72l26,-12l-22,-20c-29,-27 -27,-44 9,-71c40,-29 45,-50 24,-108c-16,-45 -16,-50 -1,-73c19,-30 33,-33 194,-51c80,-9 132,-19 149,-30c34,-23 74,-113 88,-198l10,-68h418c230,0 418,2 418,4c0,3 -11,55 -24,118c-43,196 -59,333 -54,458c5,130 11,148 103,289c95,146 143,360 115,519c-33,196 -191,379 -400,462c-120,48 -189,61 -350,65c-85,3 -173,0 -195,-5zM1974,2675c80,-39 150,-110 189,-192c30,-63 32,-76 32,-173c0,-99 -2,-110 -33,-172c-41,-84 -128,-167 -209,-199c-46,-19 -77,-23 -153,-23c-76,0 -107,4 -153,23c-81,32 -168,115 -210,200c-30,62 -32,73 -32,171c0,97 2,110 31,170c34,73 106,150 167,182c84,42 109,48 212,45c86,-3 108,-8 159,-32z"></path><path d="M1756,2618c-20,-28 -20,-46 0,-94c15,-37 15,-39 -6,-56c-12,-10 -28,-18 -35,-18c-28,0 -43,-36 -50,-121c-7,-84 -8,-87 -54,-138c-44,-49 -47,-51 -78,-42c-30,9 -33,7 -33,-10c0,-11 -4,-17 -10,-14c-5,3 -10,1 -10,-5c0,-7 9,-14 20,-17c23,-6 26,-19 8,-26c-10,-4 -10,-6 -1,-6c6,-1 15,4 18,9c3,6 11,10 16,10c6,0 7,-4 4,-10c-3,-5 5,-20 18,-33c23,-24 26,-24 237,-24c211,0 214,0 237,24c13,13 21,28 18,33c-3,6 -2,10 4,10c5,0 13,-4 16,-10c3,-5 11,-10 17,-10c7,0 7,5 -1,14c-9,11 -7,15 9,19c11,3 20,10 20,17c0,6 -4,8 -10,5c-5,-3 -10,3 -10,13c0,18 -4,19 -35,12c-34,-8 -37,-6 -80,47c-36,44 -45,63 -46,96c-3,122 -8,134 -70,165c-36,18 -37,23 -18,89c11,35 10,45 -4,67c-22,34 -69,36 -91,4zM1712,2189c-6,-27 -14,-35 -40,-40c-41,-8 -40,0 3,40c19,17 36,42 36,54c2,22 2,22 6,1c2,-12 0,-37 -5,-55zM1926,2190c42,-42 43,-49 2,-41c-34,7 -46,29 -46,86c1,20 2,23 5,9c2,-12 20,-36 39,-54z"></path></g></g></g></svg>