<svg version="1.1" xmlns="http://www.w3.org/2000/svg" xmlns:xlink="http://www.w3.org/1999/xlink" width="450" height="261" viewBox="0,0,256,148.47917"><g fill="none" fill-rule="nonzero" stroke="none" stroke-width="1" stroke-linecap="butt" stroke-linejoin="miter" stroke-miterlimit="10" stroke-dasharray="" stroke-dashoffset="0" font-family="none" font-weight="none" font-size="none" text-anchor="none" style="mix-blend-mode: normal"><g transform="translate(0,-12.97718) scale(0.56889,0.56889)"><path d="M413.557,83.0555c-8.716,-7.1892 -15.471,-16.4908 -19.168,-27.1675c-9.552,-27.5492 -35.732,-47.33404 -66.533,-47.33404h-257.4484c-38.8847,0.00522 -70.4076,31.52814 -70.4076,70.41284c0,28.3122 16.7104,52.7192 40.8088,63.8982c6.7082,3.111 10.9329,9.908 10.9329,17.301v0.136c0,6.923 0.7006,13.678 2.0391,20.208c2.1594,10.536 -0.9725,21.474 -8.4755,29.186c-5.2285,5.38 -8.4493,12.721 -8.4493,20.815c0,16.501 13.3746,29.876 29.8759,29.876h283.1831c55.276,0 100.085,-44.809 100.085,-100.085c0,-31.099 -14.19,-58.889 -36.443,-77.2465z" fill="#2096b2"></path><path d="M257.072,0h-138.327c-15.413,0 -28.0245,11.9786 -29.0493,27.1309h196.4263c-1.025,-15.1523 -13.636,-27.1309 -29.05,-27.1309z" fill="#1d2843"></path><path d="M89.6957,27.1309c-0.0471,0.6588 -0.0732,1.3228 -0.0732,1.992v149.1391c0,16.083 13.0395,29.123 29.1225,29.123h138.327c16.083,0 29.123,-13.04 29.123,-29.123v-149.1391c0,-0.6692 -0.032,-1.3332 -0.073,-1.992z" fill="#ffffff"></path><path d="M121.375,17.866c2.253,0 4.079,-1.8259 4.079,-4.0783c0,-2.2523 -1.826,-4.07823 -4.079,-4.07823c-2.252,0 -4.078,1.82593 -4.078,4.07823c0,2.2524 1.826,4.0783 4.078,4.0783z" fill="#ffffff"></path><path d="M139.822,17.866c2.252,0 4.078,-1.8259 4.078,-4.0783c0,-2.2523 -1.826,-4.07823 -4.078,-4.07823c-2.253,0 -4.079,1.82593 -4.079,4.07823c0,2.2524 1.826,4.0783 4.079,4.0783z" fill="#ffffff"></path><path d="M158.268,17.866c2.252,0 4.078,-1.8259 4.078,-4.0783c0,-2.2523 -1.826,-4.07823 -4.078,-4.07823c-2.252,0 -4.078,1.82593 -4.078,4.07823c0,2.2524 1.826,4.0783 4.078,4.0783z" fill="#ffffff"></path><path d="M213.764,157.426h-51.71c-7.491,0 -13.563,6.073 -13.563,13.563v3.378c0,7.49 6.072,13.563 13.563,13.563h51.71c7.49,0 13.563,-6.073 13.563,-13.563v-3.378c0,-7.49 -6.073,-13.563 -13.563,-13.563z" fill="#fff67e"></path><path d="M196.05,65.6809h-77.451v2.9646h77.451z" fill="#f4d3c1"></path><path d="M196.05,55.0828h-77.451v2.9645h77.451z" fill="#f4d3c1"></path><path d="M196.05,90.731h-77.451v2.9645h77.451z" fill="#f4d3c1"></path><path d="M196.05,80.1274h-77.451v2.9646h77.451z" fill="#f4d3c1"></path><path d="M226.386,58.246c0.481,-0.481 0.481,-1.2601 0,-1.7464l-0.915,-0.915c-0.481,-0.481 -1.26,-0.481 -1.747,0l-1.824,1.8248l4.026,1.2967l0.454,-0.4549z" fill="#f4d3c1"></path><path d="M235.802,61.4982c0.481,-0.4811 0.481,-1.2601 0,-1.7464l-0.915,-0.915c-0.481,-0.481 -1.26,-0.481 -1.746,0l-1.652,1.6523l4.026,1.2966z" fill="#f4d3c1"></path><path d="M255.655,87.5101c0.481,-0.481 0.481,-1.26 0,-1.7463l-0.915,-0.915c-0.481,-0.481 -1.26,-0.481 -1.746,0l-0.455,0.4549l1.297,4.026l1.824,-1.8248z" fill="#f4d3c1"></path><path d="M252.403,78.0934c0.481,-0.481 0.481,-1.2601 0,-1.7463l-0.915,-0.915c-0.481,-0.4811 -1.26,-0.4811 -1.746,0l-0.288,0.2875l1.297,4.026z" fill="#f4d3c1"></path><path d="M219.677,91.5674c-0.439,-0.4392 -0.946,-1.3803 -0.23,-3.158l-5.406,-3.4299c-0.774,-0.4915 -1.108,-1.4379 -0.816,-2.3006c0.293,-0.8627 1.13,-1.4169 2.04,-1.3385l7.299,0.6222c1.301,-1.4692 4.857,-5.4743 8.078,-8.9983l-17.302,-13.0505c-1.056,-0.7999 -1.38,-2.1855 -0.768,-3.3672c0.612,-1.1816 1.919,-1.7254 3.189,-1.328l24.658,7.7853c2.018,-1.7411 7.472,-6.4311 8.214,-7.0376c1.297,-1.051 5.182,-3.2626 7.534,-0.9046c2.353,2.3581 0.147,6.2377 -0.904,7.5344c-0.612,0.7529 -5.38,6.2951 -7.038,8.2192l7.786,24.6526c0.402,1.2653 -0.147,2.5777 -1.328,3.1894c-1.182,0.6066 -2.568,0.2981 -3.368,-0.7686l-13.05,-17.3012c-3.524,3.226 -7.529,6.7762 -8.998,8.0781l0.622,7.299c0.078,0.9098 -0.471,1.7516 -1.339,2.0392c-0.868,0.2875 -1.814,-0.0419 -2.3,-0.8157l-3.43,-5.4063c-1.778,0.7163 -2.719,0.2091 -3.153,-0.2248zM222.527,86.7833c0.408,0.4078 0.549,1.0091 0.371,1.5529c0.649,-0.2092 1.381,0.0366 1.767,0.6379l1.804,2.8391l-0.313,-3.6495c-0.042,-0.4811 0.146,-0.9569 0.512,-1.281c0.063,-0.0523 6.201,-5.4691 10.766,-9.6885c0.318,-0.2928 0.742,-0.4392 1.176,-0.4026c0.429,0.0366 0.826,0.2562 1.088,0.6013l12.726,16.8725l-7.372,-23.3403c-0.173,-0.5437 -0.027,-1.1398 0.376,-1.5424c2.285,-2.6613 6.896,-8.0206 7.456,-8.7107c0.769,-0.9516 1.61,-2.9542 1.119,-3.4457c-0.492,-0.4914 -2.494,0.3504 -3.446,1.119c-0.685,0.5542 -6.049,5.1658 -8.789,7.5291c-0.403,0.345 -0.957,0.4653 -1.464,0.3032l-23.34,-7.3722l16.872,12.7262c0.345,0.2562 0.565,0.6536 0.602,1.0876c0.036,0.434 -0.105,0.8575 -0.403,1.1764c-4.219,4.5645 -9.631,10.7028 -9.689,10.7656c-0.318,0.366 -0.794,0.5542 -1.28,0.5124l-3.65,-0.3137l2.839,1.8038c0.099,0.0628 0.183,0.1307 0.262,0.2092z" fill="#f4d3c1"></path><path d="M140.141,142.917c7.383,0 13.369,-5.986 13.369,-13.369c0,-7.384 -5.986,-13.37 -13.369,-13.37c-7.384,0 -13.37,5.986 -13.37,13.37c0,7.383 5.986,13.369 13.37,13.369z" fill="#f4d3c1"></path><path d="M187.909,142.917c7.383,0 13.369,-5.986 13.369,-13.369c0,-7.384 -5.986,-13.37 -13.369,-13.37c-7.384,0 -13.37,5.986 -13.37,13.37c0,7.383 5.986,13.369 13.37,13.369z" fill="#f4d3c1"></path><path d="M235.677,142.917c7.383,0 13.369,-5.986 13.369,-13.369c0,-7.384 -5.986,-13.37 -13.369,-13.37c-7.384,0 -13.37,5.986 -13.37,13.37c0,7.383 5.986,13.369 13.37,13.369z" fill="#f4d3c1"></path><g><path d="M331.375,136.366l23.424,38.655l16.417,-11.012l29.678,-12.752c5.343,17.557 7.989,81.602 7.989,81.602l3.189,48.573l-92.237,18.059c-0.925,-16.339 -5.296,-16.391 -5.296,-16.391l7.796,-69.257l-11.09,-36.375c-3.2,-9.705 7.451,-20.324 7.451,-20.324l12.679,-20.757v-0.016z" fill="#fff67e"></path><path d="M353.282,204.352l1.538,-9.322l18.179,-0.35l34.801,-3.629l23.963,0.23z" fill="#333333"></path><path d="M291.45,169.416l0.611,8.12l5.935,-4.894c0.737,-0.607 0.957,-1.637 0.533,-2.489c-0.366,-0.748 -1.156,-1.192 -1.982,-1.13l-5.087,0.382v0.011z" fill="#d5846a"></path><path d="M252.251,155.387c-0.314,0.079 -0.554,0.314 -0.674,0.596l29.541,11.221l8.366,-4.764c-0.57,-0.319 -21.783,-7.388 -26.859,-9.076c-0.706,-0.236 -1.464,-0.257 -2.191,-0.074l-8.172,2.102h-0.011z" fill="#1d2843"></path><path d="M285.719,161.792c-4.026,5.354 -7.869,2.343 -7.869,2.343l-23.084,-7.859l8.622,-1.992l22.336,7.498v0.01z" fill="#ffffff"></path><path d="M281.128,167.188l-29.541,-11.22c-0.068,0.156 -0.115,0.313 -0.099,0.486l0.063,0.821c0.031,0.392 0.271,0.732 0.632,0.878l27.225,10.013l1.71,-0.978z" fill="#070e1d"></path><path d="M343.055,64.7086l12.538,-1.3856l20.962,36.0038l6.143,1.7772c15.393,9.516 20.522,35.9 20.522,35.9l12.674,69.806l-9.228,0.695c0,0 -0.826,-15.131 -1.731,-23c-0.904,-7.864 -4.047,-33.227 -4.047,-33.227l-29.677,12.752l-14.582,11.817c-1.276,14.807 -4.994,40.678 -6.625,51.731c-1.03,6.959 -7.649,11.722 -14.556,10.368c-3.394,-0.664 -5.882,-2.086 -5.882,-2.086l-43.355,-49.75l-11.592,-5.903c-2.892,-1.375 -3.075,-4.381 -3.075,-4.381c-4.69,-1.213 -2.995,-6.369 -2.995,-6.369l-5.501,-0.732c-1.171,-0.151 -2.065,-1.098 -2.154,-2.274c-0.105,-1.37 0.925,-2.562 2.295,-2.667l21.218,-1.594l-0.147,-1.982c-0.12,-1.621 1.098,-3.043 2.719,-3.163c1.035,-0.079 2.039,0.397 2.635,1.249l3.226,4.617c0.894,1.276 1.423,2.766 1.538,4.314l0.517,6.854l30.676,25.181l1.391,-72.144c-0.314,-8.329 6.839,-11.962 6.839,-11.962c3.451,-2.719 5.385,-3.362 5.385,-3.362l0.643,-33.5415l3.226,-13.5472z" fill="#ebb799"></path><path d="M344.42,112.231c8.821,-1.464 11.403,7.592 11.403,7.592l19.315,51.156l-2.991,1.37c0,0 -13.427,-38.65 -17.887,-48.521c-4.46,-9.882 -9.85,-11.597 -9.85,-11.597z" fill="#d86e2e"></path><path d="M387.979,198.047l-32.161,-78.224l25.547,76.42z" fill="#070e1d"></path><path d="M347.348,87.8552l-0.491,-18.4411l-7.028,-2.128l-0.643,35.4759c2.139,-4.7686 8.298,-9.673 8.162,-14.9068z" fill="#d5846a"></path><path d="M336.572,30.7231c0,0 -7.592,1.4745 -10.499,10.9904l-1.657,16.5588c-1.522,-0.1464 -3.07,0.5176 -3.964,1.8823c-1.281,1.9607 -0.737,4.5959 1.234,5.8821c0.586,0.3817 1.234,0.5856 1.888,0.6536l-1.083,10.8231c-0.371,3.7175 0.623,7.482 2.955,10.3995c1.296,1.6209 3.053,3.0744 5.401,3.7594c1.187,0.3503 2.441,0.413 3.675,0.2928l33.426,-3.2104l8.591,-45.2949l-34.095,-14.9588l-5.877,2.2169v0.0104z" fill="#ebb799"></path><path d="M353.826,64.9753l-3.811,25.531l-4.858,0.4235c-3.1,-7.2938 -2.923,-13.9915 0.073,-18.8489c2.996,-4.8625 8.607,-7.1003 8.607,-7.1003h-0.006z" fill="#d5846a"></path><path d="M346.234,57.0801c6.149,-15.8948 -12.648,-26.3362 -12.648,-26.3362c-3.837,1.3594 -6.101,7.482 -6.101,7.482l4.826,-4.3972c0,0 1.202,9.218 7.084,12.6374c5.877,3.4247 6.85,10.6088 6.85,10.6088h-0.011z" fill="#d5846a"></path><path d="M400.893,151.278l-2.886,6.901c0,0 0.105,-27.434 -2.975,-39.58c-3.079,-12.151 -12.323,-17.495 -12.323,-17.495c19.016,8.319 18.184,50.174 18.184,50.174z" fill="#fff67e"></path><path d="M391.853,158.645l-4.005,3.513l-26.587,-36.38z" fill="#fff67e"></path><path d="M329.341,24.2657c0,0 -7.127,8.3238 -1.846,13.9445c0,0 1.344,-3.5868 4.58,-5.1605c0,0 0.842,4.3501 8.11,9.5943c7.262,5.2547 6.06,14.4204 6.06,14.4204c0,0 5.798,-4.6482 5.965,-4.4443c1.82,-0.7738 3.979,-0.6536 5.757,0.5176c2.63,1.7307 3.508,5.3331 1.956,8.0677c-0.842,1.4797 -2.191,2.4626 -3.692,2.8757c-2.75,0.7529 -5.249,2.2326 -6.969,4.5122c-0.387,0.5072 -0.811,1.0353 -1.26,1.579c0,0 -7.096,8.669 -2.85,20.7521c0,0 1.218,6.8808 11.607,7.5866c0,0 9.25,11.806 22.07,6.844l-3.618,-2.363c0,0 7.315,-6.7606 10.143,-2.865c0,0 7.341,-6.9491 5.982,-13.8298c-0.356,-1.7882 -0.115,-3.6391 0.857,-5.1867c2.416,-3.843 6.165,-11.163 4.042,-17.0451c-3.007,-8.3657 5.631,-9.1709 3.398,-23.8108c-2.237,-14.6347 -15.832,-16.8307 -15.832,-16.8307c0,0 -4.956,-8.3448 -15.042,-9.8297c-6.865,-1.0091 -20.951,1.7098 -29.249,3.5502c-4.146,0.9202 -7.759,3.4352 -10.08,6.9854l-0.094,0.1464v-0.0105z" fill="#070e1d"></path><path d="M314.293,218.355l-14.012,7.403c-1.323,0.701 -1.909,2.285 -1.339,3.676l7.357,18.106c0,0 -1.862,8.183 -1.642,11.148l3.116,41.467c0.199,2.646 2.175,4.81 4.784,5.26l5.903,1.009c1.459,0.251 2.939,0.262 4.403,0.037c12.517,-1.935 74.36,-11.576 83.013,-14.729c7.2,-2.62 21.694,-9.244 28.569,-12.428c2.254,-1.051 3.571,-3.441 3.237,-5.903l-1.522,-11.184c0,0 1.407,-34.775 1.877,-45.018c0.34,-7.492 -1.527,-17.997 -2.562,-23.105c-0.345,-1.741 -1.94,-2.938 -3.712,-2.808l-41.478,3.117l-13.783,2.86l-22.263,-0.152c-1.506,11.754 -3.247,23.806 -4.235,30.467c-1.03,6.959 -7.649,11.722 -14.556,10.368c-3.394,-0.664 -5.882,-2.086 -5.882,-2.086l-15.278,-17.532v0.016z" fill="#1d2843"></path><path d="M343.05,110.479c6.164,-0.606 10.828,1.72 13.809,3.974c2.096,1.584 3.775,3.649 4.977,5.981l28.156,54.649l10.938,21.991l-10.949,0.821l-5.662,-15.978c0,0 -25.16,-54.743 -30.347,-61.953c-5.186,-7.205 -12.987,-7.069 -12.987,-7.069l-5.391,0.805c3.43,-2.546 7.456,-3.221 7.456,-3.221z" fill="#1d2843"></path><path d="M370.537,109.946l10.07,18.65l-2.907,-8.162c-1.187,-3.314 -3.075,-6.342 -5.543,-8.851l-1.61,-1.647v0.01z" fill="#d5846a"></path><path d="M324.808,213.665l0.774,-14.4c-3.566,6.07 -0.774,14.4 -0.774,14.4z" fill="#d5846a"></path><path d="M352.874,60.8396c0.44,-0.3033 0.968,-0.4287 1.496,-0.4601c0.408,-0.0262 0.81,-0.1935 1.134,-0.4863c0.842,-0.7633 0.863,-2.1018 -0.02,-2.8809c-0.638,-0.5595 -1.606,-0.6327 -2.312,-0.1673c-0.318,0.2091 -0.554,0.4967 -0.7,0.8104c-0.241,0.5176 -0.575,0.9777 -1.014,1.349c-0.011,0 -0.021,0.0157 -0.027,0.0209c-0.554,0.4967 -0.522,1.396 0.142,1.8352c0.339,0.2248 0.789,0.251 1.15,0.0627c0.057,-0.0313 0.104,-0.0575 0.151,-0.0888z" fill="#d5846a"></path><path d="M331.05,54.9763c0.238,-1.2009 -0.111,-2.282 -0.779,-2.4146c-0.669,-0.1326 -1.404,0.7335 -1.642,1.9344c-0.238,1.201 0.111,2.282 0.779,2.4146c0.669,0.1327 1.404,-0.7334 1.642,-1.9344z" fill="#070e1d"></path><path d="M333.325,50.7171c-1.443,-0.9412 -3.184,-1.3072 -4.884,-1.0301l-0.664,0.1098c2.955,-4.2874 5.543,0.9203 5.543,0.9203z" fill="#070e1d"></path><path d="M331.987,73.6546l-4.11,2.3685c-0.507,0.2981 -1.156,-0.0104 -1.239,-0.5908l-0.115,-0.7581c2.143,-2.6666 5.469,-1.0248 5.469,-1.0248z" fill="#ffffff"></path><path d="M362.406,61.5087c4.559,6.5619 -4.183,13.5995 -4.183,13.5995c-4.805,1.7725 -4.685,10.0231 -4.685,10.0231c-3.492,-4.92 2.165,-10.9381 2.165,-10.9381c9.213,-6.7605 6.698,-12.6949 6.698,-12.6949h0.005z" fill="#1d2843"></path><path d="M351.562,48.9602c9.929,0.8104 13.908,12.8936 13.908,12.8936c-1.459,-12.9825 -13.908,-12.8936 -13.908,-12.8936z" fill="#1d2843"></path><path d="M338.219,40.2285c-7.78,-5.6834 -4.831,-15.9314 -4.831,-15.9314c-0.032,9.8767 4.831,15.9314 4.831,15.9314z" fill="#1d2843"></path><path d="M366.777,67.5739c5.177,-8.8467 -3.409,-15.9262 -3.409,-15.9262c5.961,7.6389 3.409,15.9262 3.409,15.9262z" fill="#1d2843"></path><path d="M354.663,232.524c0.026,-0.209 0.031,-0.329 0.031,-0.329l-0.455,-35.073c-1.506,11.753 -3.247,23.805 -4.235,30.466c-1.03,6.96 -7.649,11.723 -14.556,10.369c-3.394,-0.665 -5.882,-2.087 -5.882,-2.087l-15.278,-17.531l-1.344,0.711l19.293,20.737c7.524,8.083 21.139,3.696 22.415,-7.273h0.011z" fill="#070e1d"></path></g></g></g></svg>